<?xml version="1.0" encoding="UTF-8"?><svg id="Stacked" xmlns="http://www.w3.org/2000/svg" viewBox="0 0 1463.54 1463.01"><defs><style>.cls-1{fill:none;}.cls-2{fill:#481609;}.cls-3{fill:#54260d;}.cls-4{fill:#6f944b;}.cls-5{fill:#e8b21a;}.cls-6{fill:#f29f0b;}.cls-7{fill:#b04f1a;}.cls-8{fill:#fed811;}.cls-9{fill:#fff;}.cls-10{fill:#abcf67;}.cls-11{fill:#843b14;}.cls-12{fill:#fff8c6;}.cls-13{fill:#462004;}.cls-14{fill:#b0651a;}.cls-15{fill:#83370e;}.cls-16{fill:#34180a;}.cls-17{fill:#be860d;}.cls-18{fill:#efd182;}.cls-19{fill:#d2e1e8;}.cls-20{fill:#fef7c5;}.cls-21{fill:#d77813;}.cls-22{fill:#652d11;}</style></defs><g id="Test_copy"><path class="cls-8" d="M483.79,1020.13c45.39-.03,90.78-1.01,136.15-2.31,157.61-4.51,315.84-12.26,472.91,5.98,137.01-104.06,225.49-268.69,225.49-454.01C1318.34,255.11,1063.23,0,748.54,0S178.74,255.11,178.74,569.8c0,196.46,99.43,369.68,250.7,472.13,14.26-13.53,34.76-21.78,54.35-21.79Z"/><polygon class="cls-6" points="864.97 816.62 888.98 1074.86 1017.32 1086.68 1130.19 1073.75 1143.68 874.75 1146.14 811.85 864.97 816.62"/><path class="cls-19" d="M1130.37,1053.86v35.74l-49.05,26.21-93.83,3.68-79.33-20.35-19-24.29,1.59-24.58c31.73,10.61,66.8,25.63,127.99,25.63,50.44,0,86.6-12.68,111.62-22.04Z"/><path class="cls-12" d="M1021.69,849.04c86.11,0,124.27-23.77,124.27-23.77l-.36-67.46-152.29,12.22-128.16-12.22,3.74,73.09s66.68,18.14,152.79,18.14Z"/><polygon class="cls-6" points="890.75 1074.86 890.88 1075.02 889.11 1074.86 877.54 950.06 890.75 1067.46 890.75 1074.86"/><polygon class="cls-6" points="868.17 816.57 869.24 816.55 868.82 829.18 868.82 829.24 868.17 849.13 865.16 816.62 868.17 816.57"/><path class="cls-6" d="M1103.44,1028.44c.58,13.64.6,25.7.45,34.56-22.09,6.82-49.94,12.9-84.56,12.9-42.32,0-72.81-7.31-98.08-15.32-.07-9.76-.05-20.34.27-25.34.67-10.54-11.91-92.23-16.68-124.57-2.13-14.49-4.21-44.49-5.83-73.19,8.77,1.66,19.22,3.43,31.04,5.07.47,9.49,1.08,18.5,1.9,26.04,3.75,34.83,11.3,95.06,11.77,122.84.47,27.76.47,38.59,2.82,46.11,2.83,11.77,14.11,14.6,16.48-.94,1.88-12.71.47-99.3,0-119.07-.23-9.53-1.44-40.55-2.2-71.42,18.55,1.75,39.15,2.91,60.97,2.91,7.33,0,14.31-.18,20.95-.49,2.22-.11,4.39-.22,6.53-.36,6.52-.42,12.69-.96,18.52-1.62,1.97-.22,3.9-.45,5.78-.7,1.25-.16,2.45-.32,3.66-.49.87-.13,1.71-.25,2.54-.38,3.03-.45,5.96-.92,8.75-1.43.69-.13,1.35-.23,2.02-.36,8.95-1.66,16.77-3.52,23.48-5.41.6-.16,1.17-.32,1.77-.51,1.12-.32,2.22-.65,3.28-.97.22,6.82.36,12.85.36,16.93,0,17.43-17.2,146.61-16.01,175.2Z"/><path class="cls-10" d="M1021.67,546.45c1.48-33.28-2.63-66.71-12.72-98.69-7.22-22.88-17.2-45.25-29.88-65.62-5.27-8.47-10.74-16.95-16.97-24.49,1.02-2.75,1.6-5.68,1.6-8.73,0-14.19-11.98-26.17-26.17-26.17-7.64,0-14.64,3.53-19.49,8.99-24.48-2.44-50.26,1.34-74.37,5.29-23.98,3.93-47.58,9.96-70.84,16.94-46.67,14.01-92.09,31.86-138.81,45.72-25.95,7.7-52.28,14.09-79.09,17.92-27.96,3.99-56.09,7.15-80.33,23.06-3.97,2.61-7.15,6.09-9.36,10.04-7.16,3.3-12.29,9.86-14.42,17.67-2.96-3.16-6.82-5.59-11.59-6.9-12.64-3.47-29.72,4.28-32.19,18.28-9.61,54.48-17.82,112.16,7.68,163.75,12.09,24.46,32.35,44.41,52.73,62.08,20.77,18.01,43.07,34.43,66.52,48.77,19.24,11.76,39.31,21.95,59.9,31.03-17.64,17.4-34.76,35.21-48.96,55.63-14.04,20.19-24.22,43.18-31.66,66.56-14.67,46.13-17.96,95.31-20.93,143.35-7.47,8.61-3.79,25.93,11.07,25.93,1.84,0,3.5-.27,5-.75,3.19,1.38,6.61,2.16,10.03,2.16,6.18,0,11.58-2.09,15.85-5.53,2.12.59,4.34.96,6.62,1.01,60.97,1.41,121.85,6.36,182.79,7.48,56.62,1.04,114.12-7.95,159.65-43.87,22-17.36,46.46-48.08,30.51-77.27-8.37-15.32-23.8-21.3-39.22-27.18-12.59-4.8-25.47-8.77-38.45-12.38-25.51-7.08-51.42-12.7-76.78-20.33-5.92-1.78-11.81-3.67-17.65-5.72-5.5-1.93-13.15-4.85-16.68-6.43-5.64-2.53-11.2-5.24-16.61-8.23-2.09-1.15-4.17-2.35-6.16-3.68,4.31-4.85,8.71-9.53,12.69-14.7,9.95-12.94,16.05-27.81,15.39-43.87,18.27.32,37.35.4,53.64-6.28,21.02-8.62,40.59-21.72,60.33-32.9,14.37-8.14,16.41-27.07,6.79-39.31,3.32-4.27,5.35-9.58,5.35-15.55,0-13.63-11.98-26.88-26.17-26.17-.52.03-1.05.06-1.57.08,14.12-3.65,26.32-11.51,37.55-22.65,9.06-8.99,20-17.31,31.2-23.36,9.35-.22,18.38-2.6,27.22-5.69,3.04,1.27,6.34,1.98,9.77,1.98,11.07,0,20.82-7.39,24.54-17.38,8.11-5.55,14.56-12.72,19.6-23.27,6.99,3.78,15.71,4.03,23,.95,10.38-.85,20.15-6.56,22.17-18.36,1.11-6.45,2.21-12.91,3.32-19.36,1.49-8.68-.32-17.5-5.43-23.88Z"/><path class="cls-15" d="M505.19,738.47c-5.78-9.87-16.71-14.06-27.2-12.29-1.16-1.03-2.4-1.96-3.72-2.73-1.66-.97-3.35-1.72-5.05-2.29-.32-6.75-2.99-13.47-7.54-18.02-10.74-10.74-26.13-9.1-37.01,0-77.76,65.04-125.77,160.34-137.72,260.4-3.23,27.08-3.34,54.41-.42,81.52,1.55,14.4,10.74,25.72,26.17,26.17l86.05,2.51c14.14.41,26.17-12.32,26.17-26.17,0-7.54-3.25-14.18-8.35-18.89,2.21-8.51,4.42-17.01,6.63-25.52,1.56-6.02.72-12.02-1.72-17.25.89-1.7,1.65-3.56,2.21-5.62,3.39-12.52,5.08-25.62,4.84-38.6,0-.24-.04-.48-.05-.73,1.34-5.1,3.02-10.1,5.18-14.94,3.43-7.72,4.07-16.25,1.24-23.52,4.62-11.78,9.33-23.53,14.18-35.22,7.58-18.27,15.55-36.38,23.76-54.38,2.05-4.49,4.06-9.02,6.15-13.51,9.9-3.77,17.19-13.47,17.19-24.47,0-.29-.04-.57-.04-.85,12.21-6.74,15.9-23.88,9.05-35.6Z"/><path class="cls-14" d="M560.86,779.69c-9.39-4.51-18.78-9.01-28.16-13.52-12.15-5.83-23.29,4.77-23.35,14.77-2.75,2.13-4.9,5.29-5.58,8.31-.28,1.26-.42,2.45-.5,3.62-3.17,1.15-5.88,3.26-7.22,6.42-9.29,21.83-18.58,43.65-27.87,65.48-8.56,20.12-18.01,40.13-24.45,61.06-6.48,21.05-7.95,43.12-10.09,64.92-2.34,23.91-4.68,47.82-7.02,71.72-.81,8.26,7.63,15.34,15.34,15.34,4.56,0,8.23-1.83,10.85-4.7,8.12,8.08,26.28,4.55,26.83-10.57.74-20.38-1.78-40,3.3-60.02,5.23-20.64,8.66-41.23,11.27-62.36.81-6.58,1.64-13.3,2.6-20.05,13.56-23.59,24.98-48.27,34.42-73.81,1.02-2.77.89-5.69-.01-8.41,4.23-5.28,9.15-10.21,12.48-16.05,2.35-4.12,3.65-8.84,3.62-13.52l5.82-.05c14.38-.12,21.99-21.75,7.74-28.59Z"/><path class="cls-5" d="M866.83,897.35c.1-2.82-.39-5.65-1.53-8.15-5.28-11.58-3.95-26.19-4.26-38.57-.36-14.3-.55-28.59-.2-42.89.38-15.51-20.91-20.49-28.59-7.74-8.41,13.96-24.03,18.01-38.93,21.92-17.77,4.67-35.77,6.66-54.12,6.51-9.9-.08-14.84,7.58-14.82,15.27-.82.56-1.59,1.2-2.23,2.03-4.33,5.56-6.56,11.67-9.25,18.16-2.53,6.09,1.68,14.29,7.05,17.32,23.42,13.24,48.63,23.07,74.89,28.93,5.37,1.2,9.87-.24,13.16-3.03,1.93,1.12,4.2,1.88,6.84,2.1,8.6.71,17.21,1.42,25.81,2.12,2.43,3.47,6.42,5.88,11.96,5.88,11.84,0,16.59-11.04,14.22-19.88Z"/><path class="cls-3" d="M956.7,303.92c-2.08-34.03-39.75-30.64-64.28-28.78-28.65,2.18-57.2,6.4-85.29,12.41-56.66,12.11-111.47,31.71-164.13,55.73-30.07,13.72-59.38,29.02-87.92,45.67-17.05,9.95-1.62,36.48,15.49,26.49,20.11-11.74,40.63-22.82,61.52-33.13,2.67.99,5.82,1.14,9.35.05,97.77-30.18,198.24-51.52,299.92-63.1,7.84-.89,15.89-6.31,15.34-15.34Z"/><path class="cls-7" d="M549.53,119.73c-15.71,3.74-30.13,12.3-40.78,24.47-5.45,6.23-6.13,15.56,0,21.7,5.57,5.57,16.22,6.26,21.7,0,7.43-8.5,16.25-13.96,27.24-16.58,19.2-4.58,11.07-34.17-8.16-29.59Z"/><path class="cls-7" d="M974.5,198.68c-7.72-21.87-22.96-39.06-41.45-52.61-38.62-28.31-88.6-41.25-135.55-46.09-50.39-5.19-105.36-1.54-153.56,14.66-24.87,8.36-48.46,20.44-71.92,32.06-23.68,11.73-47.14,24-69.52,38.08-45.25,28.46-86,63.92-120.47,104.76-1.66.73-3.25,1.7-4.7,2.92-24.03,20.18-38.05,48.89-47.42,78.31-4.63,14.55-8.66,29.53-11.63,44.51-3.37,16.98,2.33,33.3,20.95,36.78.25.05,1.03.13,1.7.23.06.48.51,1.42.61,1.88.66,3.05,3.8,6.75,5.75,8.97,4.87,5.56,11.68,9.47,18.76,11.48,14.94,4.24,30.57.71,43.71-7.02,5.18-3.05,10-6.6,14.74-10.24,4.47,1.1,9.47.34,13.87-3.44,11.64-10,24.7-15.92,39.04-20.92,16.61-5.79,26.63-15.12,37.88-28.21.63-.74,1.29-1.45,1.94-2.17,23.25-15.23,45.32-32.26,66.94-49.73,2.74.27,5.73-.15,8.83-1.53,31.06-13.81,62.11-27.62,93.17-41.43,4.12-1.83,6.52-5.94,7.23-10.37,22.07-8.38,44.75-15.26,67.86-20.67,29.31-6.86,59.09-11.36,89.12-13.52,33.01-2.37,66.18-2.2,97.96,8.01,4.75,1.53,8.81.78,11.94-1.28,3.06-.98,5.9-3.05,8.06-6.51,12.39-19.86,13.91-45.03,6.18-66.93Z"/><path class="cls-19" d="M1130.06,1053.87v35.74l-48.66,26.21-93.09,3.68-78.69-20.34-18.73-24.13-.13-.16v-24.58c9.53,3.21,19.53,6.82,30.5,10.31,25.27,8.01,55.75,15.32,98.08,15.32,34.62,0,62.47-6.08,84.56-12.9,9.84-3.07,18.54-6.24,26.17-9.13Z"/><path class="cls-18" d="M1146.14,825.27s-.18.11-.52.31l-4.67-64.79-24.04,22.07s1.5,31.08,2.18,53.46c-1.06.32-2.17.65-3.28.97-.6.18-1.17.34-1.77.51-6.71,1.89-14.53,3.75-23.48,5.41-.67.13-1.34.23-2.02.36-2.8.51-5.72.97-8.75,1.43-.83.13-1.68.25-2.54.38-1.21.16-2.42.32-3.66.49-1.88.25-3.81.49-5.78.7-5.83.67-12,1.21-18.52,1.62-2.15.14-4.31.25-6.53.36-6.64.31-13.63.49-20.95.49-21.82,0-42.41-1.16-60.97-2.91-.27-10.7-.49-21.37-.6-31.13-.22-20.45.07-36.87,1.39-40.99l-32.96-6.59s-.16,22.45.45,48.1c.22,8.9.52,18.17.96,27.04-11.82-1.64-22.27-3.41-31.04-5.07-.43-7.33-.81-14.55-1.17-21.42-1.35-26.33-2.2-47.32-2.2-47.32l-3.09-.72c.4-2.56.45-5.11.18-7.58l100.66,9.58,152.38-12.22.36,67.47Z"/><path class="cls-10" d="M1204.25,950.71c-1.89-16.24-.86-37.82-14.55-49.39-.59-.5-1.21-.96-1.85-1.4-.17-1.07-.33-2.14-.48-3.22-1.19-8.97-6.34-16.88-15.26-18.6-.28-.65-.58-1.28-.93-1.88-5.49-9.39-16.69-11.3-25.93-6.8-14.16,6.9-19.38,23.01-21.32,37.55-1.08,8.13-.66,16.79,3.79,23.99,1.58,2.55,3.49,4.7,5.62,6.64-2.56,3.72-5.03,7.53-6.64,12.16-2.95,8.45-3.66,17.68-2.54,26.52,0,.01,0,.03,0,.04-.18,4.06.76,8.18,2.83,11.61,6.24,17.43,21.19,33.3,40.74,21.19,14.09-8.73,22.86-25.52,26.56-41.94,6.03-3.3,10.75-9.53,9.95-16.48Z"/><path class="cls-20" d="M1108.06,644.62c-2.09,0-4.15.11-6.19.34-6.24.69-12.18,2.42-17.68,5-.82-1.43-1.68-2.82-2.57-4.19-14.51-22.18-39.63-36.84-68.2-36.84-31.92,0-59.56,18.34-72.88,45.01-7.06-2.09-14.58-3.02-22.36-2.64-35.58,1.72-64.74,31.74-67.17,69.16-.02.27-.03.54-.05.8-.88,16.06,6.12,37.52,21.25,39.71,0,0,127.74,9.64,137.68,10.08.09.61.17,1.23.26,1.84,4.49,29.31,28.62,51.71,57.71,51.71s51.08-20.47,56.99-47.9c.82-3.88,1.32-7.91,1.42-12.02,22.24-7.67,38.59-29.02,40.11-54.6.09-1.3.12-2.6.12-3.92,0-34-26.17-61.56-58.45-61.56Z"/><path class="cls-4" d="M526.13,868.8s-5.11,243.27,355.32,164.98l-54.89,44.81-340.38.81s17.77-185.47,39.94-210.59Z"/><path class="cls-4" d="M969.36,356.8c-1.36-7.7-127.98-6.67-202.3,19.8-127.09,45.27-198.41,67.3-240.88,66.62-28.78-.46-139.46,111.54-28.68,242.01,76.5,90.1,182.43,99.18,232.15,98.74,79.73-.71,125.65-33.08,125.65-33.08l8.65,24.43-96.89,51.58-46-3.39-18.07,53.3-35.38-23.57s-14.02-71.87-91.51-49.83l4.1-18.02-112.75-79.81-62.42-104.3,3.28-109.75,6.28-19.49,101.28-59.11,64.34.31,132.46-49.51,157.14-34.7,76.51-4.32,23.06,32.06Z"/><path class="cls-18" d="M859.71,699.29s10.41,50.38,98.31,30.63c0,0,23.27,23.74,69.8,19.02,0,0,2.59,70.79,75.62,54.48l-19.55,18.83-39.38-2.75-35.82-48.5-144.25-13.2-13.44-37.34,8.71-21.18Z"/><path class="cls-17" d="M865.16,839.48s-75.18,29.32-131.71-7.09l78.39-22.41,52.1-34.65,1.22,64.15Z"/><path class="cls-17" d="M867.22,879.67s-83.41,5.7-149.28-16.77l-6.11,8.71,17.07,14.96s89.5,14.63,138.83,10.03l-.51-16.93Z"/><path class="cls-8" d="M904.85,910.67c-2.13-14.49-4.21-44.49-5.83-73.19-19.01-3.57-30.1-6.59-30.1-6.59l-.09-1.66-.65,19.89,6.96,74.94c20.89,6.55,33.36,26.91,35.4,48.16,1.6,16.61-2.18,39.1-15.43,50.57-2.65,2.3-5.66,4.01-8.8,5.11l4.45,39.56v-17.18c9.53,3.21,19.53,6.82,30.5,10.31-.07-9.76-.05-20.34.27-25.34.67-10.54-11.91-92.23-16.68-124.57Z"/><polygon class="cls-1" points="868.17 849.13 877.54 950.06 867.72 862.9 868.17 849.13"/><path class="cls-12" d="M899.02,837.49c-19.01-3.57-30.1-6.59-30.1-6.59l-.09-1.66v-.05l.42-12.63,1.77-53.6,24.64,5.79s.85,20.99,2.2,47.32c.36,6.88.74,14.1,1.17,21.42Z"/><path class="cls-12" d="M960.22,815c.11,9.76.32,20.43.6,31.13-11.03-1.03-21.33-2.26-30.75-3.57-.43-8.86-.74-18.14-.96-27.04-.61-25.65-.45-48.1-.45-48.1l32.96,6.59c-1.32,4.12-1.61,20.54-1.39,40.99Z"/><path class="cls-8" d="M963.02,1036.62c-2.36,15.54-13.64,12.71-16.48.94-2.35-7.53-2.35-18.36-2.82-46.11-.47-27.78-8.01-88-11.77-122.84-.81-7.54-1.43-16.55-1.9-26.04,9.42,1.32,19.73,2.54,30.75,3.57.76,30.86,1.97,61.89,2.2,71.42.47,19.76,1.88,106.36,0,119.07Z"/><ellipse class="cls-8" cx="1073.56" cy="886.86" rx="10.15" ry="10.75"/><path class="cls-8" d="M1130.9,930.19c-6.8-10.11-6.1-23.9.43-33.92.66-1.01,1.38-1.98,2.12-2.93,1.78-4.43,4.86-8.26,9.25-10.66l.54-7.92,1.91-48.89c-1.53.85-4.82,2.56-9.98,4.71-.65.27-1.34.54-2.06.85-.78.31-1.61.61-2.47.94-.4.16-.83.32-1.25.47-3.01,1.12-6.44,2.29-10.31,3.48.22,6.82.36,12.85.36,16.93,0,17.43-17.2,146.61-16.01,175.2.58,13.64.6,25.7.45,34.56,9.84-3.07,18.54-6.24,26.17-9.13v15.63l4.65-68.73c-3.9-2-7.63-5.19-9.43-8.8-4.03-8.12-5.36-16.97-2.62-25.75,2.59-8.32,8.07-15.87,15.75-20.17l.55-8.14c-3.18-1.96-5.98-4.61-8.07-7.71Z"/><polygon class="cls-6" points="1130.06 1069.5 1137.66 957.11 1130.06 1075.02 1130.06 1069.5"/><path class="cls-12" d="M1145.62,825.57c-.13.07-.29.16-.47.27v.02c-1.53.85-4.82,2.56-9.98,4.71-.65.27-1.34.54-2.06.85-.78.31-1.61.61-2.47.94-.4.16-.83.32-1.25.47-3.01,1.12-6.44,2.29-10.31,3.48-.69-22.38-2.18-53.46-2.18-53.46l24.04-22.07,4.67,64.79Z"/><path class="cls-6" d="M1146.14,832.85l-8.39,123.02,5.49-81.11,1.91-48.89v-.02c.18-.11.34-.2.47-.27l.52,7.27Z"/><path class="cls-11" d="M330.76,459.15l53.71,15.95-10.13,3.93-46.8-15.52-10.45-48.46,14.91-58.77,35.65-66.18,73.26-67.61s4.24,1.99,11.26,5.74c-22.09,29.11-59.23,85.37-69.2,145.61-40.3,44.94-52.21,68.78-52.21,68.78l6.57,8.77-6.57,7.74Z"/><path class="cls-11" d="M567.96,329.26c-32.87,22.61-59.94,42.45-85.39,54.33-43.14,20.12-66.71,9.22-76.87.97.54-2.62,1.12-5.22,1.73-7.82,28.25-31.01,65.57-66.78,111.41-99.86.88-.63,1.77-1.28,2.67-1.91,18.14,15.49,35.28,33.84,46.44,54.29Z"/><path class="cls-11" d="M502.48,259.88c-2.56,2.13-5.13,4.28-7.65,6.44-29.65,25.39-54.25,48.26-74.56,68.42,14.01-37.49,33.05-71.17,49.51-96.52,9.71,5.79,21.04,13.09,32.7,21.66Z"/><path class="cls-11" d="M636.5,170.69c-10.94,5.96-22.04,12.25-33.23,18.9-29.76-23.05-55.61-35.3-55.61-35.3l29.94-14.8c23.1,9.31,42.54,19.96,58.89,31.21Z"/><path class="cls-11" d="M707.56,249.49c-12.54,5.43-24.46,11.05-35.79,16.77-12.67-23.21-30.14-43.14-47.99-59.45,11.14-6.77,22.43-13.45,33.84-19.89,25,21.48,40.45,43.84,49.94,62.57Z"/><path class="cls-11" d="M834.33,205.43c-6.91,1.97-14.17,4.13-21.8,6.52-.63-1.79-1.3-3.63-1.99-5.5-9.28-25.14-32.56-48.55-56.27-67.14,7.11-2.92,14.2-5.67,21.24-8.23,21.71,17.71,43.91,40.66,55.72,67.18,1.1,2.47,2.15,4.87,3.1,7.18Z"/><path class="cls-11" d="M754.34,115.17c-6.61,2.67-13.66,5.59-21.13,8.79-23.93-16.26-43.84-26.17-43.84-26.17l27.61-5.29s16.48,8.19,37.36,22.67Z"/><path class="cls-11" d="M844.17,270.21c-.22.2-.34.27-.34.27l-23.07,6.41s.72-.7,1.48-2.71l16.37-4.28,5.56.31Z"/><polygon class="cls-11" points="959.1 276.7 976.95 257.99 959.16 286.63 945.06 275.91 959.1 276.7"/><path class="cls-11" d="M983.16,192.22c-14.76-2.82-28.75-4.66-44.22-4.78-9.3-40.72-38.48-60.43-39.54-61.15l75.05,39.8,8.72,26.13Z"/><polygon class="cls-11" points="989.19 210.27 987.02 219.85 987.02 203.77 989.19 210.27"/><path class="cls-3" d="M431.56,468.96l-19.56,7.49s-.87-.54-2.33-1.73c-1.68-1.34-4.15-3.54-6.95-6.71l22.65-8.84c1.5,2.51,2.8,4.62,3.84,6.23,1.46,2.29,2.35,3.57,2.35,3.57Z"/><path class="cls-3" d="M425.37,459.15l-22.65,8.84c-8.57-9.73-20.21-28.59-21.98-60.34,6.52-7.98,13.86-16.62,22.02-25.74,1.52-1.71,3.09-3.43,4.67-5.18-.61,2.6-1.19,5.2-1.73,7.82-.23,1.14-.47,2.26-.69,3.39-5.43,23.17,10.94,55.26,20.36,71.2Z"/><path class="cls-22" d="M469.77,238.22c-16.46,25.36-35.5,59.04-49.51,96.52-14.51,14.42-26.86,27.47-37.29,39.11,9.96-60.25,47.11-116.5,69.2-145.61,4.75,2.54,10.77,5.88,17.6,9.98Z"/><path class="cls-11" d="M504.41,190.52s-15.56,18.23-34.64,47.7c-6.82-4.1-12.85-7.44-17.6-9.98,9.93-13.1,16.82-20.7,16.82-20.7l35.41-17.02Z"/><path class="cls-3" d="M380.5,400.52c.02,2.45.11,4.84.23,7.15-24.91,30.5-37.72,51.33-37.72,51.33l-5.69-7.58-6.57-8.77s11.91-23.84,52.21-68.78c-1.39,8.27-2.24,16.62-2.47,24.98v1.68Z"/><path class="cls-11" d="M865.16,109.07c-28.34,2.82-58.62,10.67-89.65,22-7.24-5.9-14.44-11.23-21.17-15.9,33.55-13.57,54.99-20.39,54.99-20.39l55.82,14.29Z"/><path class="cls-22" d="M775.51,131.07c-7.04,2.56-14.13,5.31-21.24,8.23-7.11-5.58-14.24-10.72-21.06-15.34,7.47-3.19,14.53-6.12,21.13-8.79,6.73,4.67,13.93,10,21.17,15.9Z"/><path class="cls-11" d="M754.27,139.3c-32.16,13.14-64.81,29.58-96.65,47.61-6.39-5.49-13.41-10.92-21.12-16.23,35.3-19.19,68.78-34.78,96.7-46.73,6.82,4.62,13.95,9.76,21.06,15.34Z"/><path class="cls-22" d="M657.62,186.91c-11.41,6.44-22.7,13.12-33.84,19.89-6.88-6.28-13.79-12.04-20.5-17.22,11.19-6.64,22.29-12.94,33.23-18.9,7.71,5.31,14.73,10.74,21.12,16.23Z"/><path class="cls-11" d="M623.78,206.8c-36.62,22.33-71.42,45.97-102.26,68.17-6.3-5.4-12.72-10.43-19.04-15.09,32.11-26.64,66.76-50.08,100.8-70.3,6.71,5.18,13.63,10.94,20.5,17.22Z"/><path class="cls-22" d="M521.52,274.97c-.9.63-1.79,1.28-2.67,1.91-45.84,33.08-83.17,68.85-111.41,99.86,3.36-14.35,7.76-28.43,12.83-42,20.3-20.16,44.9-43.03,74.56-68.42,2.53-2.17,5.09-4.31,7.65-6.44,6.32,4.66,12.74,9.69,19.04,15.09Z"/><path class="cls-2" d="M420.27,334.75c-5.07,13.57-9.48,27.65-12.83,42-1.59,1.75-3.16,3.47-4.67,5.18-8.16,9.11-15.5,17.76-22.02,25.74-.13-2.31-.22-4.69-.23-7.15v-1.68c.23-8.36,1.08-16.71,2.47-24.98,10.43-11.64,22.78-24.69,37.29-39.11Z"/><path class="cls-22" d="M402.72,468l-18.25,7.11-53.71-15.95,6.57-7.74,5.69,7.58s12.81-20.83,37.72-51.33c1.77,31.75,13.41,50.61,21.98,60.34Z"/><path class="cls-22" d="M580.19,365.72l-71.6,38.06-57,45.16-26.22,10.22c-9.42-15.94-25.79-48.03-20.36-71.2.22-1.14.45-2.26.69-3.39,10.16,8.25,33.73,19.15,76.87-.97,25.45-11.88,52.52-31.71,85.39-54.33,6.28,11.53,10.67,23.73,12.24,36.46Z"/><path class="cls-11" d="M822.24,274.18l-119.1,31.12-110.96,59.92-117.1,78.28-45.86,21.89c-1.05-1.61-2.35-3.72-3.84-6.23l26.22-10.22,57-45.16,71.6-38.06c-1.57-12.72-5.96-24.92-12.24-36.46,29.11-20.03,62.75-42.23,103.81-63.01,6.68,12.2,12.02,25.3,15.4,39.27l35.34-11.08s-1.77-18.99-14.94-44.96c14.26-6.19,29.31-12.13,45.27-17.71,22.25-7.78,42-14.35,59.7-19.84,14.15,40.27,11.84,56.51,9.71,62.23Z"/><path class="cls-3" d="M429.22,465.38l-19.55,9.33-10.16,4.86-15.03-4.46,18.25-7.11,22.65-8.84c1.5,2.51,2.8,4.62,3.84,6.23Z"/><path class="cls-22" d="M722.51,294.44l-35.34,11.08c-3.38-13.97-8.72-27.07-15.4-39.27,11.33-5.72,23.25-11.33,35.79-16.77,13.18,25.97,14.94,44.96,14.94,44.96Z"/><path class="cls-22" d="M844.17,270.21l-5.56-.31-16.37,4.28c2.13-5.72,4.44-21.96-9.71-62.23,7.63-2.38,14.89-4.55,21.8-6.52,21.42,51,11.84,62.97,9.84,64.78Z"/><path class="cls-11" d="M834.33,205.43c46.93-13.48,77.95-18.27,104.61-17.99,4.69,20.61,4.31,46.58-7.38,78.2l13.5,10.27-100.89-5.7c2-1.8,11.59-13.77-9.84-64.78Z"/><path class="cls-22" d="M987.02,203.77v16.08l-7.8,34.47-2.27,3.66-17.85,18.72-14.04-.79-13.5-10.27c11.7-31.62,12.07-57.59,7.38-78.2,15.47.13,29.45,1.97,44.22,4.78l3.86,11.55Z"/><path class="cls-3" d="M987.02,192.98v10.79l-3.86-11.55c1.28.25,2.56.51,3.86.76Z"/><polygon class="cls-3" points="979.23 254.32 987.02 219.85 987.02 247.43 976.95 257.99 979.23 254.32"/><path id="Outline" class="cls-16" d="M1171.65,861.12c-5.44-1.1-11.1-1.03-16.7.01,1.29-44.13-3.01-94.99-3.22-97.36-.04-.41-.1-.82-.18-1.21,14.88-12.47,24.4-31.01,25.64-51.74.1-1.46.14-2.97.14-4.64,0-39.92-31.12-72.39-69.38-72.39-2.54,0-5.04.14-7.38.41-4.13.45-8.21,1.29-12.19,2.51-12.32-17.23-29.96-29.43-49.91-35.07,3.11-17.86,4.42-34.76,4.42-55.97,0-79.14-26.42-153.79-74.76-212.49,2.32-1.39,4.12-3.6,4.89-6.34,4.59-16.38,3.23-29-1.31-38.71,4.78-6.36,9.76-14.01,16.39-27.27,11-21.99,13.33-45.2,6.75-67.12-7.59-25.29-26.36-47.13-55.76-64.93-23.66-14.32-110.97-59.79-241.28-43.81-41.95,5.15-73.32,16.62-108.23,34.43-10.83-9.82-24.89-15.32-39.76-15.32-32.69,0-59.28,26.59-59.28,59.28,0,3.79.37,7.54,1.07,11.21-51.78,30.44-100.79,72.77-135.27,117.01-37.88,48.61-55.2,94.86-48.77,130.24,5.37,29.55,17.27,49.77,35.37,60.09,9.36,5.34,20.04,8.01,32.23,8.01,7.16,0,14.85-.96,23.08-2.8-5.47,19.62-8.06,39.51-8.06,61.3,0,49.43,14.64,95.5,42.82,136.07-61.22,44.1-105.96,109.29-133.06,193.99-23.14,72.33-27.24,140.92-27.63,175.37-.11,9.46,3.5,18.37,10.15,25.1,6.66,6.74,15.55,10.44,25.02,10.44h428.24c14.72,1.34,29.52,1.65,44.28.77,35.99-2.72,70.66-16.7,99.13-38.71.02,5.2-.03,9.38-.07,12.79-.06,4.82-.1,8.31.09,11.29,2.62,40.17,77.07,56.02,139.05,56.02,7.19,0,14.23-.22,20.96-.63,65.09-4.01,102.87-25.01,101.07-56.17-.06-.98-1.23-21.88.04-49.65,4.01,1.43,8.2,2.28,12.51,2.42.45.01.9.02,1.35.02,35.48,0,57.54-45.32,61.32-76.42,4.04-33.21-8.95-82.98-43.83-90.04ZM1072.4,651.69c.83,1.27,1.57,2.48,2.27,3.69l4.97,8.61,9-4.22c4.57-2.14,9.39-3.5,14.35-4.05,1.6-.18,3.23-.27,4.96-.27,26.31,0,47.72,22.76,47.72,50.73,0,1.18-.03,2.23-.1,3.27-1.23,20.57-14.45,38.65-32.9,45l-7.11,2.45-.19,7.52c-.08,3.34-.49,6.72-1.19,10.01-5,23.17-24.12,39.36-46.5,39.36-23.51,0-43.33-17.88-47.08-42.36l-1.76-12.54-10.68,1.45c-50.44,6.87-133.47-9.79-134.3-9.96l-.61-.11c-6.8-.98-12.76-15.05-12.02-28.4l.04-.7c2.06-31.67,27.1-57.61,57-59.05,6.45-.31,12.79.43,18.8,2.21l8.7,2.57,4.06-8.11c12.03-24.07,36.3-39.02,63.31-39.02,24,0,46.15,11.94,59.24,31.92ZM861.96,911.31c-16.51-4.01-33.35-6.47-47.35-8.93-14.32-2.14-29.44-4.28-43.34-8.23-18.35-4.95-36.21-11.75-53.47-19.87,9.25-14.62,12.45-27.42,13.54-38.76,2.48.15,4.95.29,7.41.42,8.84.24,17.66.04,26.54-.94,34.8-3.09,66.47-18,90.46-42.02-.96,45.68,1.92,88.19,6.21,118.35ZM818.67,323.85c-49.97,7.66-110.01,29.46-162.98,48.69-36.26,13.17-67.58,24.54-87.8,28.48-5.97,1.16-13.37,1.7-20.68,1.89,1.73-1.3,3.48-2.62,5.26-3.95,50.62-37.96,149.64-87.2,240.97-107.87,47.03-10.64,79.55-14.08,101.96-14.08s34.29,3.33,40.89,6.4c16.56,7.71,19.27,18.41,17.66,29.55-19.75-.1-69.89.88-135.27,10.9ZM549.84,125.76c6.63,0,13.02,1.74,18.61,4.93-12.33,6.8-25.37,14.31-39.64,22.53-5.33,3.07-10.85,6.25-16.57,9.53.35-20.45,17.06-36.99,37.59-36.99ZM353.7,463.12c-12.28-7-20.62-22.19-24.79-45.15-11.08-60.96,72.8-167.55,179.52-228.1,11.12-6.31,21.46-12.27,31.2-17.88,65.09-37.49,100.94-58.15,160.83-65.49,18.21-2.23,35.5-3.21,51.85-3.21,94.41,0,156.7,32.62,175.58,44.05,64.28,38.91,49.98,85.58,40.85,103.84-4.49,8.97-8.02,14.93-11.31,19.73-3.84-2.9-7.95-5.25-12-7.13-28.09-13.08-80.84-10.99-156.77,6.19-98.68,22.33-198.34,73.54-249.18,111.67-4.9,3.67-9.6,7.22-14.15,10.66-5.52,4.17-10.79,8.14-15.88,11.94-.04.03-.08.06-.12.09-32.78,24.48-58.3,41.73-96.79,55.97-25.67,9.5-45.46,10.44-58.83,2.82ZM446.11,701.77c10.96,13.3,23.47,25.93,37.52,37.79,7.39,6.24,14.76,11.89,21.95,17.01-18.3,25.04-33.04,51-44.89,76.59-21.03-12.98-44.27-23.57-69.3-31.52-9.81-3.11-19.73-5.75-29.66-7.9,22.82-37.26,51.02-68.01,84.38-91.96ZM410.59,1067.75h-103.07c-3.65,0-7.06-1.43-9.63-4.02-2.55-2.58-3.93-6-3.89-9.63.09-7.78.38-17.39,1.05-28.4,33.45-1.09,68.85-8.93,102.97-22.89,5.75-2.35,11.43-4.89,17.01-7.56-4.15,32.84-4.62,58.55-4.44,72.5ZM418.94,968.98c-9.37,5.05-19.12,9.69-29.13,13.79-30.94,12.66-62.88,19.9-93.06,21.19,3.22-33.54,9.99-75.53,23.85-118.86,8.25-25.8,18.21-49.65,29.83-71.54,11.49,2.21,23.03,5.11,34.41,8.72,24.38,7.74,46.9,18.14,67.1,30.93-17.43,42.43-27.3,82.84-32.88,115.08-.04.23-.07.45-.11.68ZM474.51,1067.75h-42.23c-.19-15.49.45-47.57,6.81-87.76.67-1.59.96-3.32.82-5.06.2-1.18.39-2.36.6-3.56,9.43-54.22,31.51-132.53,83.1-202.77,15.32,9.57,28.82,16.43,38.35,20.82-45.45,53.65-66.8,125.85-76.77,178.68-8.4,44.49-10.29,81.89-10.68,99.64ZM883.1,1016.57c-1.13.81-2.1,1.83-2.85,3-2.1,2.15-4.16,4.13-6.1,5.91-27.58,24.93-63.91,40.62-101.16,42.3-48.89,1.12-98.79-10.33-141.12-34.69-25.49-14.63-46.32-34.22-67.1-55.17-4.54-4.53-12.11.55-9.61,6.51,9.29,21.97,25.74,41.13,44.8,55.42,2.59,2.19,6.94,5.16,9.73,7.06,2.9,1.89,7.01,4.93,10.06,6.58,8.75,5.44,18.01,10.15,27.53,14.27h-151.07c1.09-41.06,10.71-191.06,91.77-274.82l11.57-11.97-15.64-5.73c-.43-.16-44.01-16.37-86.84-52.67-15.21-12.89-28.39-26.56-39.55-40.97-.1-.17-.19-.34-.3-.5-.42-.63-.89-1.2-1.41-1.7-29.2-38.6-43.95-82.45-43.95-130.95,0-24.84,3.7-46.92,11.6-69.14,37.93-14.48,64.61-32.23,95.65-55.27,9.95.58,35.61,1.63,52.91-1.74,21.87-4.27,53.93-15.9,91.04-29.38,52.03-18.89,111.01-40.3,158.88-47.64,52-7.98,94.71-10.05,118.83-10.51,51.9,56.48,80.45,131.23,80.45,210.93,0,19.99-1.23,35.84-4.15,52.56-1.31-.05-2.61-.12-3.93-.12-32.36,0-61.7,16.45-78.47,43.45-5.7-1-11.54-1.36-17.45-1.07-28.5,1.38-53.18,17.95-66.71,42.23-10.45,7.5-30.11,16.5-65.64,18.7-68.24,4.21-92.55-35.37-93.61-37.16-2.99-5.15-9.57-6.92-14.74-3.96-5.19,2.97-6.99,9.59-4.02,14.78,1.18,2.07,28.54,48.32,102.28,48.32,3.69,0,7.51-.12,11.44-.36,21.02-1.3,39.16-4.89,54.25-10.7-.37,2.44-.64,4.92-.81,7.43l-.06.92c-.84,15.15,3.82,31.43,13.14,41.5-2.89,3.42-5.86,6.75-8.99,9.92-27.42,28.49-65.6,40.82-104.78,41.04-16.64,1.02-32.56-5.07-49.05-.25-4.09,1.06-5.46,6.67-2.28,9.49,3.52,3.29,7.51,5.51,11.64,7.26,3.43,1.35,6.95,2.36,10.53,3.16-.85,9.54-3.44,19.61-11.46,31.65-9.18-4.96-18.18-10.24-26.94-15.8-2.05-1.38-4.87-1.17-6.71.63-2.11,2.06-2.15,5.45-.08,7.56,5.61,5.73,11.44,10.72,17.64,15.46,15.38,11.98,32.4,21.7,50.03,29.97,19.64,8.85,40.67,15.46,61.87,19.2,27.13,5.33,98.26,12.92,110.53,38.37,7.64,18.43-7.14,41.08-21.61,56.73ZM1112.99,925.51c1.48,5.94,3.82,11.14,6.87,15.4-6.49,7.64-13.44,18.86-13.77,32.16-.35,14.2,5.02,27.71,13.69,37.72-.27.84-.46,1.73-.52,2.66-1.77,27.2-1.22,52.14-.62,62.59.96,16.62-32.25,30.31-80.78,33.3-74.35,4.58-135.78-15.51-137.06-35.19-.14-2.15-.1-5.28-.05-9.62.09-6.97.21-17.04-.28-32.3,23.88-25.79,44.24-65.89,16.57-94.81-8.44-8.39-19.68-14.51-32.09-19.18-5.66-33.01-9.58-87.47-6.88-145.02,21.49,3.9,78.94,13.16,122.86,9.66,8.34,30.92,35.24,52.57,66.76,52.57,28.7,0,53.65-17.91,64.17-44.81,1.23,21.66,2.44,53.59,1.02,80.17-5.46,3.98-10.35,8.98-14.25,14.84-6.99,10.5-9.15,25.78-5.64,39.87ZM1193.98,948.54c-3.29,27.03-21.64,57.89-40.47,57.37-12.53-.4-26.22-14.3-25.77-32.31.28-11.45,11.28-21.84,14.64-24.75l10.43-9.04c.69-.6.57-1.71-.24-2.14l-12.15-6.55c-2.61-1.4-5.13-5.67-6.43-10.86-2.03-8.11-.96-17.2,2.65-22.62,6.31-9.47,17.21-15.69,26.75-15.69,1.35,0,2.68.13,3.96.38,18.75,3.79,29.9,39.32,26.63,66.2Z"/><g id="Face"><path class="cls-16" d="M774.54,620.57c4.31,6.36,6.72,16.87,2.17,19.94-4.55,3.08-14.32-2.44-18.63-8.79-4.31-6.36-4.11-14.01.43-17.08,4.55-3.08,11.72-.42,16.03,5.94Z"/><path class="cls-16" d="M840.18,630.44c-3.5,6.08-11.54,12.07-16.39,9.27-4.85-2.8-4.69-13.31-1.19-19.39,3.5-6.08,10.28-8.75,15.13-5.96,4.85,2.8,5.95,9.99,2.45,16.08Z"/><ellipse class="cls-16" cx="914.77" cy="530.89" rx="54.59" ry="70.41"/><ellipse class="cls-9" cx="927.58" cy="506.44" rx="16.64" ry="18.13"/><ellipse class="cls-16" cx="627.97" cy="535.57" rx="61.4" ry="73.37"/><ellipse class="cls-9" cx="645.46" cy="509.68" rx="16.64" ry="18.13"/></g><path class="cls-21" d="M108.47,1158.76s0,0,0,0c-2.18-.45-4.49-.68-6.88-.68H15.59c-2.24,0-4.55.23-6.86.67-2.74.53-4.93,2.04-6.51,4.49-1.5,2.34-2.23,5.81-2.23,10.63s.78,8.54,2.38,10.81c1.63,2.31,3.73,3.79,6.26,4.4,2.18.53,4.52.8,6.95.8h25.18v102.89c0,2.79.22,5.51.67,8.09.52,3.04,2.17,5.48,4.91,7.28,2.62,1.72,6.59,2.56,12.14,2.56s9.71-.84,12.27-2.57c2.63-1.78,4.27-4.17,4.87-7.09.52-2.53.78-5.24.78-8.05v-103.1h24.75c2.53,0,4.95-.23,7.19-.68,2.65-.53,4.82-2.03,6.46-4.45,1.59-2.34,2.36-5.83,2.36-10.68s-.77-8.54-2.36-10.89c-1.64-2.42-3.78-3.91-6.34-4.44Z"/><path class="cls-21" d="M205.62,1207.4h0c-6.34-4.55-13.91-6.85-22.51-6.85-5.57,0-10.45,1.2-14.49,3.57-2.25,1.32-4.26,2.71-6.01,4.16v-37.79c0-2.94-.26-5.72-.78-8.26-.6-2.9-2.23-5.32-4.84-7.17-2.57-1.82-6.59-2.7-12.3-2.7s-9.52.84-12.14,2.56c-2.72,1.78-4.4,4.17-5,7.11-.52,2.52-.78,5.3-.78,8.26v122.3c0,2.93.22,5.72.67,8.3.52,3.04,2.17,5.49,4.91,7.28,2.62,1.72,6.59,2.56,12.14,2.56,5.84,0,9.92-.84,12.48-2.57,2.63-1.78,4.27-4.17,4.87-7.09.52-2.53.78-5.31.78-8.26v-44.01c.52-3.2,2.05-6.14,4.54-8.76,2.46-2.58,5.67-3.84,9.81-3.84,2.93,0,5.31.68,7.06,2.03,1.84,1.41,3.19,3.28,4.13,5.71.97,2.52,1.46,5.45,1.46,8.73v39.92c0,2.96.26,5.77.78,8.35.6,3.01,2.29,5.44,5,7.23,2.62,1.72,6.59,2.56,12.14,2.56s9.71-.84,12.27-2.57c2.63-1.78,4.27-4.17,4.87-7.09.52-2.53.78-5.31.78-8.26v-40.55c0-9.86-1.74-18.74-5.16-26.4-3.46-7.72-8.39-13.92-14.67-18.43Z"/><path class="cls-21" d="M324.11,1261.21c4-4.46,6.03-10.84,6.03-18.96,0-4.58-.86-9.44-2.55-14.44-1.7-5.02-4.35-9.77-7.88-14.1-3.56-4.38-8.22-7.99-13.84-10.73-5.63-2.74-12.43-4.13-20.2-4.13-10.67,0-20.06,2.5-27.92,7.42-7.85,4.92-14.02,11.72-18.34,20.22-4.3,8.46-6.48,18.26-6.48,29.15,0,6.67.95,13.43,2.83,20.08,1.89,6.71,4.93,12.93,9.02,18.48,4.13,5.61,9.62,10.14,16.33,13.45,6.69,3.31,14.95,4.98,24.56,4.98,7.63,0,14.56-.81,20.58-2.4,6.1-1.62,11.05-3.84,14.71-6.6,3.98-3,6-6.58,6-10.62,0-1.54-.16-3.07-.47-4.55-.33-1.55-1.05-3.21-2.13-4.94-1.54-2.9-3.32-5.13-5.3-6.64-2.12-1.61-4.49-2.42-7.05-2.42-1.37,0-2.75.26-4.1.76-1.17.44-2.49.99-3.94,1.64-1.38.62-2.86,1.21-4.4,1.74-1.52.53-3.36,1-5.45,1.41-2.06.4-4.47.6-7.16.6-3.06,0-5.86-.64-8.33-1.9-2.45-1.25-4.45-3-5.95-5.19-1.11-1.61-1.84-3.45-2.19-5.47h37.91c6.37,0,11.66-2.29,15.72-6.82ZM296.84,1242.25c0,1.41-.26,2.42-.72,2.78-.35.28-1.29.74-3.65.74h-22.32c.23-2.17.83-4.22,1.8-6.11,1.25-2.43,3.05-4.43,5.36-5.92,2.28-1.48,5.02-2.23,8.15-2.23,2.45,0,4.5.48,6.09,1.42,1.63.97,2.9,2.23,3.87,3.86.96,1.61,1.42,3.4,1.42,5.46Z"/><path class="cls-21" d="M466.12,1189.22c2.65-.53,4.82-2.03,6.46-4.45h0c1.59-2.34,2.36-5.83,2.36-10.68s-.77-8.54-2.36-10.89c-1.64-2.42-3.78-3.91-6.34-4.44-2.18-.45-4.49-.68-6.88-.68h-85.99c-2.24,0-4.55.23-6.86.67-2.74.53-4.93,2.04-6.51,4.49-1.5,2.34-2.23,5.81-2.23,10.63s.78,8.54,2.38,10.81c1.63,2.31,3.73,3.79,6.26,4.4,2.18.53,4.52.8,6.95.8h25.18v102.89c0,2.79.22,5.51.67,8.09.52,3.04,2.17,5.48,4.91,7.28,2.62,1.72,6.59,2.56,12.14,2.56s9.71-.84,12.27-2.57c2.63-1.78,4.27-4.17,4.87-7.09.52-2.53.78-5.24.78-8.05v-103.1h24.75c2.53,0,4.95-.23,7.19-.68Z"/><path class="cls-21" d="M548.31,1203.04s0,0,0,0c-2.57-1.82-6.52-2.7-12.09-2.7s-9.71.84-12.27,2.57c-2.62,1.77-4.29,4.14-4.96,7.04-.6,2.54-.9,5.34-.9,8.31v42.89c0,2.8-.51,5.3-1.51,7.43-.97,2.06-2.31,3.58-4.1,4.66-1.8,1.08-4.09,1.63-6.83,1.63-2.58,0-4.76-.54-6.48-1.61-1.7-1.05-2.93-2.58-3.76-4.67-.89-2.22-1.34-5.08-1.34-8.49v-41.4c0-2.95-.3-5.78-.9-8.41-.68-2.96-2.34-5.39-4.93-7.24-2.57-1.82-6.59-2.7-12.3-2.7s-9.54.88-12.17,2.69c-2.7,1.86-4.37,4.28-4.97,7.19-.52,2.52-.78,5.3-.78,8.26v41.62c0,7.53.92,14.4,2.74,20.43,1.83,6.08,4.51,11.44,7.97,15.93,3.5,4.55,7.86,8.07,12.94,10.46,5.06,2.38,10.85,3.59,17.2,3.59,3.37,0,6.61-.66,9.61-1.97,2.92-1.27,5.55-2.87,7.81-4.76,1.07-.89,2.04-1.79,2.9-2.7.25.99.63,2,1.14,3.01.98,1.98,2.81,3.58,5.43,4.75,2.48,1.12,5.84,1.66,10.27,1.66,5.52,0,9.48-.79,12.1-2.43,2.73-1.7,4.42-4.03,5.04-6.91.52-2.47.79-5.14.79-7.95v-74.74c0-2.8-.26-5.54-.78-8.14-.6-2.98-2.23-5.43-4.84-7.29Z"/><path class="cls-21" d="M636.31,1203.67s0,0,0,0c-1.58-1.1-3.36-1.97-5.31-2.6-1.89-.6-3.76-1.02-5.56-1.25-1.77-.22-3.35-.33-4.71-.33-3.49,0-6.64.55-9.34,1.63-2.68,1.07-5.05,2.51-7.06,4.29-.99.88-1.9,1.77-2.71,2.66-.8-1.99-2.41-3.74-4.8-5.2-2.54-1.55-6.39-2.31-11.77-2.31-5.7,0-9.71.84-12.27,2.57-2.63,1.78-4.27,4.17-4.87,7.09-.52,2.52-.78,5.3-.78,8.26v74.1c0,2.79.22,5.54.66,8.19.52,3.11,2.17,5.6,4.91,7.39,2.62,1.72,6.59,2.56,12.14,2.56s9.69-.79,12.31-2.43c2.74-1.71,4.43-4.11,5.04-7.14.52-2.6.78-5.34.78-8.14v-49.26c0-1.44.24-2.76.71-3.93.47-1.18,1.12-2.22,1.94-3.09.77-.83,1.69-1.42,2.81-1.81,1.2-.42,2.62-.63,4.22-.63,2,0,3.13.23,3.72.43.9.3,1.69.66,2.32,1.06.9.58,1.93,1.07,3.06,1.47,1.21.44,2.89.65,5.14.65,4.87,0,8.67-2.42,11.31-7.19,2.42-4.39,3.65-9.71,3.65-15.83,0-2.59-.51-4.84-1.52-6.69-.99-1.82-2.34-3.33-4-4.5Z"/><path class="cls-21" d="M717.1,1202.18h0c-2.52-.52-5.22-.78-8.1-.78h-.02l-7.48.27v-18.44c0-2.95-.26-5.73-.78-8.26-.6-2.92-2.27-5.33-4.97-7.19-2.63-1.81-6.62-2.69-12.17-2.69s-9.71.84-12.27,2.57c-2.62,1.78-4.26,4.08-4.87,6.85-.52,2.39-.79,5.1-.79,8.07v19.66h-2.25c-4.58,0-8.11,1.5-10.48,4.47-2.29,2.87-3.41,6.99-3.41,12.61,0,5.99.91,10.25,2.78,13.01,2.01,2.98,5.46,4.49,10.26,4.49h3.1v33.46c0,6.7.82,12.65,2.43,17.7,1.64,5.16,4.16,9.5,7.48,12.89,3.33,3.41,7.66,5.94,12.85,7.52,5.05,1.54,11.07,2.32,17.89,2.32,2.37,0,4.81-.22,7.26-.67,2.85-.52,5.28-2.15,7.21-4.84,1.9-2.64,2.82-6.63,2.82-12.21,0-5.12-.77-8.75-2.36-11.1-1.62-2.38-3.75-3.94-6.34-4.63-2.29-.61-4.89-.92-7.73-.92-1.33,0-2.38-.14-3.15-.42-.61-.21-1.06-.54-1.39-.99-.38-.52-.65-1.26-.81-2.23-.19-1.16-.29-2.69-.29-4.55v-30.92l8.19.22c3,0,5.75-.35,8.19-1.03,2.75-.77,5-2.53,6.67-5.22,1.63-2.61,2.43-6.43,2.43-11.68,0-5.7-.88-9.75-2.69-12.39-1.85-2.69-4.27-4.36-7.19-4.96Z"/><path class="cls-21" d="M781.18,1276.62s0,0,0,0c-1.92-.46-3.9-.69-5.88-.69-1,0-1.82-.13-2.42-.38-.4-.17-.68-.43-.89-.85-.22-.43-.5-1.25-.65-2.7-.13-1.32-.2-3.04-.2-5.11v-96.82c0-2.96-.3-5.76-.9-8.32-.68-2.88-2.34-5.27-4.93-7.12-2.57-1.82-6.52-2.7-12.09-2.7s-9.74.88-12.31,2.71c-2.59,1.84-4.25,4.24-4.93,7.12-.6,2.54-.9,5.34-.9,8.32v98.52c0,6.93.59,12.88,1.75,17.67,1.19,4.91,2.98,9.03,5.31,12.27,2.37,3.29,5.28,5.85,8.66,7.61,3.29,1.72,7.02,2.93,11.11,3.6,3.98.65,8.48.98,13.38.98,1.84,0,3.77-.23,5.76-.69,2.42-.56,4.4-2.26,5.88-5.04,1.37-2.59,2.04-6.5,2.04-11.98s-.68-9.14-2.07-11.6c-1.48-2.61-3.41-4.22-5.73-4.78Z"/><path class="cls-21" d="M884.01,1261.21c4-4.46,6.03-10.84,6.03-18.96,0-4.58-.86-9.44-2.55-14.44-1.7-5.02-4.35-9.76-7.88-14.1-3.56-4.38-8.22-7.99-13.84-10.73-5.63-2.74-12.43-4.13-20.2-4.13-10.67,0-20.06,2.5-27.92,7.42-7.85,4.92-14.02,11.72-18.34,20.22-4.3,8.46-6.48,18.26-6.48,29.15,0,6.67.95,13.43,2.83,20.08,1.9,6.71,4.93,12.93,9.02,18.48,4.13,5.61,9.62,10.14,16.33,13.45,6.69,3.31,14.95,4.98,24.56,4.98,7.63,0,14.56-.81,20.58-2.4,6.1-1.62,11.05-3.84,14.71-6.6,3.98-3,6-6.58,6-10.62,0-1.53-.16-3.06-.47-4.55-.33-1.55-1.05-3.21-2.13-4.94-1.54-2.9-3.32-5.13-5.3-6.64-2.12-1.61-4.49-2.42-7.05-2.42-1.37,0-2.75.26-4.1.76-1.17.44-2.49.99-3.94,1.64-1.38.62-2.86,1.21-4.4,1.74-1.52.53-3.36,1.01-5.45,1.41-2.06.4-4.47.6-7.16.6-3.06,0-5.86-.64-8.33-1.9-2.45-1.25-4.45-3-5.95-5.19-1.11-1.61-1.84-3.45-2.19-5.47h37.91c6.37,0,11.66-2.29,15.72-6.82ZM837.22,1233.74c2.28-1.48,5.02-2.23,8.15-2.23,2.45,0,4.5.48,6.09,1.42,1.63.97,2.9,2.23,3.87,3.86.96,1.61,1.42,3.4,1.42,5.46,0,1.41-.26,2.42-.72,2.78h0c-.35.28-1.29.74-3.65.74h-22.31c.23-2.17.83-4.22,1.8-6.11,1.25-2.43,3.05-4.42,5.36-5.92Z"/><path class="cls-21" d="M1048.77,1161s0,0,0,0c-2.57-1.82-6.59-2.7-12.3-2.7s-9.76.88-12.39,2.69c-2.7,1.86-4.37,4.31-4.97,7.3-.52,2.59-.78,5.33-.78,8.14v41.53h-38.68v-41.32c0-2.96-.3-5.79-.9-8.41-.68-2.96-2.34-5.39-4.93-7.24-2.57-1.82-6.59-2.7-12.3-2.7s-9.76.88-12.39,2.69c-2.7,1.86-4.37,4.32-4.97,7.31-.52,2.58-.78,5.32-.78,8.14v115.93c0,2.82.26,5.59.78,8.24.6,3.07,2.27,5.57,4.97,7.42,2.63,1.81,6.61,2.69,12.17,2.69s9.75-.88,12.39-2.69c2.68-1.84,4.38-4.28,5.06-7.25.6-2.62.9-5.38.9-8.2v-42.59h38.68v42.38c0,2.81.26,5.59.78,8.24.6,3.07,2.27,5.57,4.97,7.42,2.63,1.81,6.61,2.69,12.17,2.69s9.75-.88,12.39-2.69c2.68-1.84,4.38-4.28,5.06-7.25.6-2.62.9-5.38.9-8.2v-115.93c0-2.96-.3-5.79-.9-8.41-.68-2.96-2.33-5.39-4.93-7.23Z"/><path class="cls-21" d="M1139.36,1206.18h0c-7.73-5-16.92-7.54-27.31-7.54-7.62,0-14.69,1.49-21.01,4.43-6.32,2.94-11.79,7.04-16.27,12.18-4.46,5.12-7.95,11.24-10.36,18.18-2.4,6.9-3.61,14.45-3.61,22.42,0,8.43,1.41,16.22,4.18,23.14,2.77,6.93,6.59,12.97,11.35,17.94,4.76,4.98,10.3,8.85,16.48,11.5,6.17,2.64,12.79,3.98,19.69,3.98s13.08-1.3,19.24-3.87c6.17-2.57,11.71-6.36,16.49-11.28,4.76-4.91,8.55-10.92,11.26-17.87,2.7-6.92,4.06-14.92,4.06-23.76,0-10.73-2.1-20.49-6.25-29.01-4.18-8.57-10.2-15.45-17.91-20.44ZM1099.11,1267.87c-1.5-3.33-2.26-7.52-2.26-12.45,0-4.4.67-8.29,1.98-11.57,1.28-3.21,3.05-5.76,5.26-7.59,2.13-1.76,4.66-2.62,7.75-2.62,3.4,0,6.17.84,8.45,2.57,2.3,1.75,4.08,4.21,5.29,7.3,1.25,3.23,1.88,7.16,1.88,11.7,0,5.06-.76,9.32-2.26,12.66-1.46,3.24-3.4,5.67-5.75,7.22-2.38,1.56-4.79,2.33-7.39,2.33s-4.97-.76-7.27-2.31c-2.29-1.55-4.2-3.98-5.67-7.23Z"/><path class="cls-21" d="M1261.73,1203.04s0,0,0,0c-2.57-1.82-6.52-2.7-12.09-2.7s-9.71.84-12.27,2.57c-2.62,1.77-4.29,4.14-4.97,7.04-.6,2.54-.9,5.34-.9,8.31v42.89c0,2.8-.51,5.3-1.51,7.43-.97,2.06-2.31,3.58-4.1,4.66-1.8,1.08-4.09,1.63-6.83,1.63-2.58,0-4.76-.54-6.48-1.61-1.7-1.05-2.93-2.58-3.76-4.67-.89-2.22-1.34-5.08-1.34-8.49v-41.4c0-2.96-.3-5.79-.9-8.41-.68-2.96-2.34-5.39-4.93-7.24-2.57-1.82-6.59-2.7-12.3-2.7s-9.54.88-12.17,2.69c-2.7,1.85-4.37,4.27-4.97,7.19-.52,2.52-.78,5.3-.78,8.26v41.62c0,7.53.92,14.4,2.74,20.43,1.83,6.08,4.51,11.44,7.97,15.93,3.5,4.55,7.86,8.08,12.94,10.46,5.06,2.38,10.85,3.59,17.2,3.59,3.37,0,6.6-.66,9.61-1.97,2.92-1.27,5.55-2.87,7.81-4.76,1.07-.89,2.04-1.79,2.9-2.7.25.99.63,2,1.14,3.01.98,1.98,2.81,3.58,5.43,4.75,2.48,1.12,5.84,1.66,10.27,1.66,5.52,0,9.48-.79,12.1-2.43,2.73-1.7,4.42-4.03,5.04-6.91.52-2.47.79-5.14.79-7.95v-74.74c0-2.8-.26-5.54-.78-8.14-.6-2.98-2.23-5.43-4.84-7.29Z"/><path class="cls-21" d="M1349.81,1252.04c-3.1-2.43-6.54-4.45-10.23-6-3.57-1.5-7.2-2.77-10.79-3.78-2.4-.84-4.65-1.62-6.77-2.32-2.04-.68-3.86-1.4-5.4-2.14-1.35-.64-2.4-1.42-3.13-2.33-.62-.77-.93-1.74-.93-2.98,0-.96.24-1.74.74-2.38.57-.72,1.35-1.29,2.39-1.73,1.1-.46,2.44-.69,4-.69,2.38,0,4.71.51,6.92,1.52,2.45,1.12,4.79,2.31,6.97,3.53,2.41,1.36,4.72,2.28,6.88,2.75,2.08.55,4.26.15,6.49-1.18,2-1.21,3.96-3.14,5.83-5.79,2.95-4.35,4.24-8.34,3.83-11.87-.43-3.71-3.09-6.89-7.9-9.47-2.17-1.3-4.49-2.48-6.89-3.5-2.37-1-4.75-1.88-7.08-2.62-2.36-.74-4.76-1.26-7.14-1.56-2.34-.29-4.64-.44-6.83-.44-8.18,0-15.35,1.38-21.32,4.11-6.06,2.77-10.77,6.7-14.01,11.66-3.25,4.98-4.89,10.84-4.89,17.44,0,5.19.73,9.65,2.16,13.26,1.43,3.61,3.41,6.82,5.91,9.53,2.46,2.69,5.31,4.96,8.45,6.75,3.05,1.74,6.28,3.29,9.53,4.55,2.3,1.01,4.58,1.89,6.75,2.61,2.12.71,4.09,1.38,5.92,2.01,1.73.6,3.32,1.27,4.71,2,1.23.64,2.15,1.36,2.75,2.12.51.65.74,1.34.74,2.17,0,1.47-.58,2.58-1.82,3.47-1.42,1.02-3.56,1.53-6.37,1.53-1.91,0-3.77-.29-5.55-.86-1.84-.59-3.64-1.39-5.35-2.38-1.81-1.04-3.68-2.09-5.57-3.11-1.85-.99-3.66-1.8-5.38-2.39-3.31-2.09-6.25-2.64-8.74-1.63-2.32.95-4.39,2.96-6.33,6.16-1.63,2.23-2.84,4.36-3.6,6.33-.81,2.09-1.17,4.15-1.09,6.11.08,1.99.69,3.92,1.81,5.73,1.15,2.7,3.19,5.05,6.07,7,2.73,1.85,5.94,3.49,9.53,4.88,3.55,1.38,7.24,2.45,10.95,3.18,3.72.73,7.32,1.1,10.68,1.1,13.43,0,24.14-3.15,31.83-9.36,7.82-6.32,11.79-15.27,11.79-26.61,0-5.79-.96-10.73-2.85-14.67-1.9-3.94-4.48-7.22-7.68-9.73Z"/><path class="cls-21" d="M1457.75,1283.5c-1.54-2.9-3.32-5.13-5.3-6.64-2.12-1.61-4.49-2.42-7.05-2.42-1.37,0-2.75.26-4.1.76-1.17.44-2.49.99-3.94,1.64-1.38.62-2.86,1.21-4.4,1.74-1.52.53-3.36,1.01-5.45,1.41-2.06.4-4.47.6-7.16.6-3.06,0-5.86-.64-8.33-1.9-2.45-1.25-4.45-3-5.95-5.19-1.11-1.61-1.84-3.45-2.19-5.47h37.91c6.37,0,11.66-2.29,15.72-6.82,4-4.46,6.03-10.84,6.03-18.96,0-4.58-.86-9.44-2.55-14.44-1.7-5.02-4.35-9.76-7.88-14.1-3.56-4.38-8.22-7.99-13.84-10.73-5.63-2.74-12.43-4.13-20.2-4.13-10.67,0-20.06,2.5-27.92,7.42-7.85,4.92-14.02,11.72-18.34,20.22-4.3,8.46-6.48,18.26-6.48,29.15,0,6.67.95,13.43,2.83,20.08,1.9,6.71,4.93,12.93,9.02,18.48,4.13,5.61,9.62,10.14,16.33,13.45,6.69,3.31,14.95,4.98,24.56,4.98,7.63,0,14.56-.81,20.58-2.4,6.1-1.62,11.05-3.84,14.71-6.6,3.98-3,6-6.58,6-10.62,0-1.53-.16-3.06-.47-4.55-.33-1.55-1.05-3.21-2.13-4.94ZM1429.51,1245.03c-.35.28-1.29.74-3.65.74h-22.31c.23-2.17.83-4.22,1.8-6.11,0,0,0,0,0,0,1.25-2.43,3.05-4.42,5.36-5.92,2.28-1.48,5.02-2.23,8.15-2.23,2.45,0,4.5.48,6.09,1.42,1.63.97,2.9,2.23,3.87,3.86.96,1.61,1.42,3.4,1.42,5.46,0,1.41-.26,2.42-.72,2.78Z"/><path class="cls-13" d="M175.08,1356.45h-12.36c-.47,0-.88.33-.98.79l-9.95,45.16s0,0,0,0c-.43,1.99-.86,4.17-1.29,6.47-.41,2.21-.79,4.42-1.13,6.58-.18-1.09-.37-2.19-.56-3.29-.3-1.72-.62-3.39-.94-5-.32-1.61-.67-3.13-1.02-4.48l-10.81-45.48c-.11-.45-.51-.77-.97-.77h-11.45c-.46,0-.87.32-.97.77l-10.86,45.42c-.32,1.31-.65,2.8-.97,4.43-.32,1.61-.64,3.28-.97,5.02-.2,1.08-.39,2.16-.57,3.22-.13-.85-.28-1.71-.43-2.59-.3-1.75-.63-3.5-.97-5.24-.34-1.74-.69-3.42-1.05-5.02l-9.9-45.21c-.1-.46-.51-.79-.98-.79h-12.25c-.3,0-.59.14-.78.38-.19.24-.26.55-.19.85l18.14,78.23c.11.45.51.77.97.77h13.75c.46,0,.87-.32.97-.77l10.76-45.55c.29-1.29.58-2.7.89-4.22s.59-3.06.86-4.6c.07-.42.14-.84.21-1.25.12.66.24,1.32.36,1.98.29,1.52.57,2.98.86,4.38.29,1.4.56,2.64.81,3.72l10.92,45.54c.11.45.51.77.97.77h13.86c.47,0,.87-.32.97-.78l18.03-78.23c.07-.3,0-.61-.19-.85-.19-.24-.48-.38-.78-.38Z"/><path class="cls-13" d="M221.27,1376.78c-2.85-1.63-6.37-2.46-10.45-2.46-2.39,0-4.64.37-6.7,1.1-2.07.74-3.95,1.83-5.57,3.24-.93.81-1.77,1.74-2.52,2.79.06-.61.11-1.24.16-1.91.14-1.92.22-3.94.22-5.99v-21.14c0-.55-.45-1-1-1h-11.93c-.55,0-1,.45-1,1v83.26c0,.55.45,1,1,1h11.93c.55,0,1-.45,1-1v-29.59c0-4.49.39-8.27,1.17-11.22.75-2.83,1.97-4.96,3.63-6.33,1.64-1.36,3.91-2.05,6.72-2.05s4.82.94,6.13,2.88c1.38,2.03,2.08,5.3,2.08,9.71v36.6c0,.55.45,1,1,1h11.88c.55,0,1-.45,1-1v-39.17c0-4.9-.73-9.02-2.17-12.26-1.47-3.3-3.68-5.82-6.57-7.47Z"/><path class="cls-13" d="M277.78,1377.84c-3.47-2.33-7.75-3.51-12.7-3.51s-9.55,1.27-13.22,3.79c-3.66,2.51-6.51,6.22-8.47,11.02-1.93,4.74-2.91,10.55-2.91,17.29s1.03,12.08,3.05,16.72c2.05,4.7,5.12,8.35,9.11,10.85,3.98,2.5,8.87,3.77,14.52,3.77,3.62,0,6.9-.33,9.72-.99,2.84-.66,5.61-1.7,8.24-3.09.33-.17.53-.51.53-.88v-9.95c0-.35-.18-.68-.49-.86-.3-.18-.68-.19-.99-.02-2.7,1.45-5.34,2.53-7.84,3.21-2.49.67-5.24,1.01-8.17,1.01-4.43,0-7.71-1.4-10.03-4.28-2.2-2.74-3.43-6.78-3.66-12.02h32.89c.55,0,1-.45,1-1v-6.85c0-5.46-.9-10.31-2.68-14.42-1.8-4.15-4.47-7.44-7.93-9.77ZM254.75,1399.15c.36-4.52,1.43-7.93,3.17-10.15,1.83-2.33,4.21-3.47,7.27-3.47,2.2,0,3.96.59,5.37,1.79,1.44,1.23,2.55,2.95,3.29,5.1.67,1.96,1.05,4.22,1.13,6.73h-20.23Z"/><path class="cls-13" d="M332.18,1375.05c-.94-.26-1.95-.45-3-.57-1.03-.11-2.02-.17-2.94-.17-2.44,0-4.7.55-6.71,1.65-1.98,1.07-3.75,2.54-5.27,4.36-1.06,1.27-2.01,2.64-2.84,4.08l-1.32-8.18c-.08-.48-.5-.84-.99-.84h-9.26c-.55,0-1,.45-1,1v59.29c0,.55.45,1,1,1h11.93c.55,0,1-.45,1-1v-30.78c-.03-2.66.28-5.07.94-7.15.66-2.07,1.58-3.85,2.74-5.29,1.15-1.43,2.51-2.52,4.04-3.26,1.53-.73,3.21-1.11,4.97-1.11.85,0,1.73.05,2.61.15.85.1,1.61.26,2.25.49.28.1.61.06.87-.1.26-.16.43-.44.46-.74l1.23-11.77c.05-.48-.26-.94-.73-1.07Z"/><path class="cls-13" d="M374.58,1377.84c-3.47-2.33-7.75-3.51-12.7-3.51s-9.55,1.27-13.22,3.79c-3.66,2.51-6.51,6.22-8.47,11.02-1.93,4.74-2.91,10.55-2.91,17.29s1.03,12.08,3.05,16.72c2.05,4.7,5.12,8.35,9.11,10.85,3.98,2.5,8.87,3.77,14.52,3.77,3.62,0,6.9-.33,9.72-.99,2.84-.66,5.61-1.7,8.24-3.09.33-.17.53-.51.53-.88v-9.95c0-.35-.18-.68-.49-.86-.3-.18-.68-.19-.99-.02-2.7,1.45-5.34,2.53-7.84,3.21-2.49.67-5.24,1.01-8.17,1.01-4.43,0-7.71-1.4-10.03-4.28-2.2-2.74-3.43-6.78-3.66-12.02h32.89c.55,0,1-.45,1-1v-6.85c0-5.46-.9-10.31-2.68-14.42-1.8-4.15-4.47-7.44-7.93-9.77ZM351.55,1399.15c.36-4.52,1.43-7.93,3.17-10.15,1.83-2.33,4.21-3.47,7.27-3.47,2.2,0,3.96.59,5.37,1.79,1.44,1.23,2.55,2.95,3.29,5.1.67,1.96,1.05,4.22,1.13,6.73h-20.23Z"/><path class="cls-13" d="M460.49,1356.45h-38.53c-.55,0-1,.45-1,1v78.23c0,.55.45,1,1,1h12.2c.55,0,1-.45,1-1v-31.37h23.67c.55,0,1-.45,1-1v-10.54c0-.55-.45-1-1-1h-23.67v-22.83h25.33c.55,0,1-.45,1-1v-10.49c0-.55-.45-1-1-1Z"/><path class="cls-13" d="M492.43,1374.27c-3.64,0-7.18.45-10.53,1.34s-6.44,2.14-9.18,3.71c-.44.25-.62.79-.42,1.25l3.64,8.67c.11.26.32.46.58.55.26.09.55.08.8-.05,2.4-1.25,4.77-2.25,7.06-2.98,2.25-.71,4.5-1.08,6.71-1.08,2.74,0,4.72.78,6.05,2.37,1.36,1.63,2.04,4.38,2.04,8.19v2.2l-7.65.33c-7.92.29-14.03,2.09-18.16,5.35-4.21,3.32-6.35,8.23-6.35,14.59,0,3.73.66,7.06,1.96,9.89,1.32,2.88,3.29,5.15,5.83,6.74,2.54,1.59,5.62,2.4,9.15,2.4,2.92,0,5.47-.37,7.58-1.1,2.13-.74,4.05-1.86,5.69-3.33,1.23-1.11,2.42-2.43,3.54-3.95l1.65,6.56c.11.44.51.76.97.76h8.67c.55,0,1-.45,1-1v-39.76c0-7.15-1.74-12.61-5.17-16.21-3.44-3.61-8.65-5.45-15.46-5.45ZM499.19,1408.27v4.4c0,4.44-1.04,7.89-3.1,10.26-2.05,2.36-4.65,3.51-7.94,3.51-2.17,0-3.83-.6-5.07-1.85-1.23-1.22-1.85-3.25-1.85-6.03,0-3.12.93-5.45,2.85-7.14,1.93-1.71,5.3-2.68,10.01-2.88l5.1-.27Z"/><path class="cls-13" d="M554.88,1374.27c-2.38,0-4.67.38-6.78,1.13-2.12.75-4.05,1.85-5.74,3.28-1.29,1.09-2.43,2.39-3.4,3.88l-1.18-6.35c-.09-.47-.5-.82-.98-.82h-9.36c-.55,0-1,.45-1,1v59.29c0,.55.45,1,1,1h11.93c.55,0,1-.45,1-1v-29.64c0-6.82.89-11.9,2.66-15.09,1.68-3.04,4.56-4.51,8.81-4.51,2.87,0,4.9.97,6.2,2.97,1.37,2.11,2.06,5.36,2.06,9.68v36.6c0,.55.45,1,1,1h11.88c.55,0,1-.45,1-1v-39.22c0-7.43-1.67-13.04-4.97-16.67-3.32-3.66-8.07-5.52-14.12-5.52Z"/><path class="cls-13" d="M616.34,1404.55c-2.25-1.58-4.93-3.11-7.96-4.55-2.96-1.41-5.29-2.61-6.93-3.57-1.54-.9-2.61-1.78-3.19-2.62-.55-.8-.81-1.77-.81-2.96,0-1.57.58-2.76,1.79-3.63,1.28-.94,3.19-1.41,5.67-1.41,2.2,0,4.4.35,6.54,1.05,2.18.71,4.35,1.62,6.43,2.69.25.13.54.15.8.05s.47-.3.58-.56l3.75-9.1c.2-.48,0-1.03-.46-1.27-2.73-1.42-5.57-2.52-8.45-3.26-2.89-.75-5.98-1.13-9.19-1.13-6.3,0-11.42,1.5-15.22,4.46-3.88,3.02-5.84,7.28-5.84,12.64,0,3.29.62,6.12,1.83,8.39,1.21,2.27,2.99,4.26,5.3,5.93,2.23,1.62,4.96,3.19,8.12,4.68,3.04,1.36,5.39,2.58,6.98,3.62,1.51.98,2.54,1.94,3.09,2.84.53.88.79,1.87.79,3.02,0,1.95-.64,3.42-1.96,4.5-1.36,1.11-3.57,1.67-6.56,1.67-2.7,0-5.53-.45-8.4-1.35-2.89-.9-5.49-1.99-7.7-3.23-.31-.17-.69-.17-1,0-.31.18-.5.51-.5.86v10.97c0,.38.22.73.56.9,2.38,1.17,4.99,2.07,7.78,2.68,2.77.6,5.96.91,9.47.91,4.61,0,8.6-.71,11.85-2.12,3.32-1.43,5.88-3.59,7.62-6.41,1.73-2.81,2.61-6.27,2.61-10.29,0-3.37-.66-6.23-1.95-8.52-1.28-2.26-3.11-4.23-5.43-5.86Z"/><path class="cls-13" d="M703.24,1397.03c-1.56-1.11-3.34-1.99-5.33-2.64,1.69-.63,3.19-1.51,4.5-2.64,1.94-1.67,3.42-3.82,4.42-6.39.99-2.53,1.49-5.44,1.49-8.66,0-7.1-2.39-12.33-7.1-15.54-4.59-3.13-11.45-4.72-20.39-4.72h-21.03c-.55,0-1,.45-1,1v78.23c0,.55.45,1,1,1h24.67c5.27,0,9.87-.94,13.68-2.8,3.85-1.88,6.86-4.62,8.93-8.15,2.06-3.51,3.11-7.74,3.11-12.57,0-3.83-.6-7.1-1.77-9.72-1.19-2.65-2.93-4.8-5.17-6.4ZM673.11,1400.94h9.22c3.15,0,5.72.45,7.63,1.35,1.87.88,3.22,2.11,4.12,3.75.91,1.66,1.38,3.73,1.38,6.15,0,3.93-.97,6.97-2.89,9.03-1.9,2.04-5.09,3.08-9.49,3.08h-9.97v-23.36ZM673.11,1388.93v-20.26h7.94c4.46,0,7.74.8,9.76,2.38,1.97,1.55,2.93,3.89,2.93,7.16,0,3.56-.89,6.27-2.65,8.04-1.76,1.77-4.9,2.67-9.35,2.67h-8.63Z"/><path class="cls-13" d="M755.55,1377.84c-3.47-2.33-7.75-3.51-12.7-3.51s-9.55,1.27-13.22,3.79c-3.66,2.51-6.51,6.22-8.47,11.02-1.93,4.73-2.91,10.55-2.91,17.29s1.03,12.09,3.05,16.72c2.05,4.7,5.12,8.35,9.11,10.85,3.98,2.5,8.87,3.77,14.52,3.77,3.62,0,6.9-.33,9.72-.99,2.84-.66,5.61-1.7,8.24-3.09.33-.17.53-.51.53-.88v-9.95c0-.35-.18-.68-.49-.86-.3-.18-.68-.19-.99-.02-2.7,1.45-5.34,2.53-7.84,3.21-2.49.67-5.24,1.01-8.17,1.01-4.43,0-7.71-1.4-10.03-4.28-2.2-2.74-3.43-6.78-3.66-12.02h32.89c.55,0,1-.45,1-1v-6.85c0-5.46-.9-10.31-2.68-14.42-1.8-4.15-4.47-7.44-7.93-9.77ZM732.52,1399.15c.36-4.52,1.43-7.93,3.17-10.15,1.83-2.33,4.21-3.47,7.27-3.47,2.2,0,3.96.59,5.37,1.79,1.44,1.23,2.55,2.95,3.29,5.1.67,1.96,1.05,4.22,1.13,6.73h-20.23Z"/><path class="cls-13" d="M814.87,1377.87c-1.96-1.07-4.24-1.95-6.78-2.61-2.55-.66-5.42-1-8.52-1-5.38,0-10.06,1.26-13.92,3.74-3.86,2.49-6.86,6.17-8.91,10.93-2.02,4.7-3.05,10.56-3.05,17.41s.98,12.81,2.91,17.4c1.96,4.67,4.87,8.21,8.64,10.52,3.75,2.3,8.31,3.46,13.58,3.46,2.96,0,5.7-.32,8.14-.94,2.46-.63,4.77-1.62,6.85-2.96.29-.18.46-.5.46-.84v-10.22c0-.36-.19-.69-.5-.87-.31-.18-.69-.18-1,0-1.96,1.13-4.03,2.05-6.17,2.72-2.1.66-4.4,1-6.82,1-2.61,0-4.72-.68-6.46-2.08-1.75-1.4-3.09-3.54-4.01-6.35-.94-2.9-1.42-6.57-1.42-10.9s.48-8.25,1.42-11.2c.92-2.87,2.28-5.06,4.04-6.52,1.76-1.45,3.9-2.15,6.53-2.15,1.68,0,3.43.25,5.19.74,1.79.5,3.58,1.19,5.34,2.05.25.12.55.14.81.03s.47-.32.57-.58l3.53-9.58c.17-.46-.02-.99-.46-1.22Z"/><path class="cls-13" d="M860.33,1377.99c-3.8-2.47-8.32-3.72-13.41-3.72-5.53,0-10.27,1.29-14.09,3.83-3.83,2.55-6.75,6.25-8.69,11-1.91,4.68-2.88,10.35-2.88,16.83,0,4.75.57,9.11,1.7,12.96,1.14,3.89,2.81,7.27,4.99,10.07,2.19,2.82,4.89,5.01,8.04,6.52,3.14,1.5,6.73,2.27,10.68,2.27,4.2,0,7.94-.77,11.13-2.29,3.2-1.52,5.91-3.73,8.07-6.56,2.14-2.8,3.77-6.19,4.85-10.08,1.07-3.85,1.61-8.19,1.61-12.9,0-6.71-1.05-12.47-3.11-17.13-2.09-4.71-5.07-8.34-8.88-10.81ZM858.12,1405.93c0,4.42-.42,8.18-1.25,11.18-.8,2.9-2.04,5.1-3.68,6.55-1.63,1.43-3.71,2.13-6.38,2.13s-4.71-.71-6.38-2.16c-1.68-1.47-2.95-3.68-3.76-6.58-.84-3-1.27-6.72-1.27-11.07,0-6.61.95-11.65,2.81-14.97,1.79-3.18,4.58-4.73,8.54-4.73,2.66,0,4.83.71,6.43,2.11,1.64,1.43,2.88,3.61,3.68,6.47.83,2.97,1.25,6.69,1.25,11.08Z"/><path class="cls-13" d="M942.65,1374.27c-3.65,0-6.94.82-9.78,2.43-2.58,1.47-4.72,3.66-6.35,6.51-1.2-2.64-3.01-4.76-5.4-6.32-2.67-1.74-6.1-2.62-10.21-2.62-2.35,0-4.59.37-6.65,1.1-2.07.73-3.95,1.82-5.57,3.24-1.22,1.06-2.29,2.33-3.19,3.79l-1.16-6.19c-.09-.47-.5-.82-.98-.82h-9.36c-.55,0-1,.45-1,1v59.29c0,.55.45,1,1,1h11.93c.55,0,1-.45,1-1v-29.8c0-4.22.34-7.87,1.02-10.83.65-2.84,1.74-5.03,3.25-6.49,1.48-1.43,3.48-2.13,6.13-2.13,1.73,0,3.15.42,4.24,1.24,1.09.83,1.94,2.16,2.52,3.95.61,1.89.92,4.38.92,7.4v36.65c0,.55.45,1,1,1h11.88c.55,0,1-.45,1-1v-31.52c0-5.93.85-10.47,2.52-13.48,1.59-2.86,4.18-4.25,7.93-4.25,2.55,0,4.4.94,5.66,2.89,1.33,2.05,2.01,5.34,2.01,9.76v36.6c0,.55.45,1,1,1h11.88c.55,0,1-.45,1-1v-39.11c0-7.52-1.53-13.16-4.54-16.77-3.06-3.67-7.66-5.52-13.69-5.52Z"/><path class="cls-13" d="M1008.59,1377.84c-3.47-2.33-7.75-3.51-12.7-3.51s-9.55,1.27-13.22,3.79c-3.66,2.51-6.51,6.22-8.47,11.02-1.93,4.73-2.91,10.55-2.91,17.29s1.03,12.09,3.05,16.72c2.05,4.7,5.12,8.35,9.11,10.85,3.98,2.5,8.87,3.77,14.52,3.77,3.62,0,6.9-.33,9.72-.99,2.84-.66,5.61-1.7,8.24-3.09.33-.17.53-.51.53-.88v-9.95c0-.35-.18-.68-.49-.86-.3-.18-.68-.19-.99-.02-2.7,1.45-5.34,2.53-7.84,3.21-2.49.67-5.24,1.01-8.17,1.01-4.43,0-7.71-1.4-10.03-4.28-2.2-2.74-3.43-6.78-3.66-12.02h32.89c.55,0,1-.45,1-1v-6.85c0-5.46-.9-10.31-2.68-14.42-1.8-4.15-4.47-7.44-7.93-9.77ZM985.56,1399.15c.36-4.52,1.43-7.93,3.17-10.15,1.83-2.33,4.21-3.47,7.27-3.47,2.2,0,3.96.59,5.37,1.79,1.44,1.23,2.55,2.95,3.29,5.1.67,1.96,1.05,4.22,1.13,6.73h-20.23Z"/><path class="cls-13" d="M1094.5,1356.45h-38.53c-.55,0-1,.45-1,1v78.23c0,.55.45,1,1,1h12.2c.55,0,1-.45,1-1v-31.37h23.67c.55,0,1-.45,1-1v-10.54c0-.55-.45-1-1-1h-23.67v-22.83h25.33c.55,0,1-.45,1-1v-10.49c0-.55-.45-1-1-1Z"/><path class="cls-13" d="M1126.44,1374.27c-3.64,0-7.18.45-10.53,1.34s-6.44,2.14-9.18,3.71c-.44.25-.62.79-.42,1.25l3.64,8.67c.11.26.32.46.58.55s.55.08.8-.05c2.4-1.25,4.78-2.26,7.06-2.98,2.25-.71,4.5-1.08,6.71-1.08,2.74,0,4.72.78,6.05,2.37,1.36,1.63,2.04,4.38,2.04,8.19v2.2l-7.65.33c-7.92.29-14.03,2.09-18.16,5.35-4.21,3.32-6.35,8.23-6.35,14.59,0,3.73.66,7.06,1.96,9.89,1.33,2.88,3.29,5.15,5.83,6.74,2.54,1.59,5.62,2.4,9.15,2.4,2.92,0,5.47-.37,7.58-1.1,2.13-.74,4.05-1.86,5.69-3.33,1.23-1.11,2.42-2.43,3.54-3.95l1.65,6.56c.11.44.51.76.97.76h8.67c.55,0,1-.45,1-1v-39.76c0-7.15-1.74-12.61-5.17-16.21-3.44-3.61-8.65-5.45-15.46-5.45ZM1133.2,1408.27v4.4c0,4.44-1.04,7.89-3.1,10.26-2.05,2.36-4.65,3.51-7.94,3.51-2.17,0-3.83-.6-5.07-1.85-1.23-1.23-1.85-3.26-1.85-6.03,0-3.12.93-5.45,2.85-7.14,1.94-1.71,5.3-2.68,10.01-2.88l5.1-.27Z"/><path class="cls-13" d="M1220.08,1374.27c-3.65,0-6.94.82-9.78,2.43-2.58,1.47-4.72,3.66-6.35,6.51-1.2-2.64-3.01-4.76-5.4-6.32-2.67-1.74-6.1-2.62-10.21-2.62-2.35,0-4.59.37-6.65,1.1-2.07.73-3.95,1.82-5.57,3.24-1.22,1.06-2.29,2.33-3.19,3.79l-1.16-6.19c-.09-.47-.5-.82-.98-.82h-9.36c-.55,0-1,.45-1,1v59.29c0,.55.45,1,1,1h11.93c.55,0,1-.45,1-1v-29.8c0-4.22.34-7.87,1.02-10.83.65-2.84,1.74-5.03,3.25-6.49,1.48-1.43,3.48-2.13,6.13-2.13,1.73,0,3.15.42,4.24,1.24,1.09.83,1.94,2.16,2.52,3.95.61,1.89.92,4.38.92,7.4v36.65c0,.55.45,1,1,1h11.88c.55,0,1-.45,1-1v-31.52c0-5.93.85-10.47,2.52-13.48,1.59-2.86,4.18-4.25,7.93-4.25,2.55,0,4.4.94,5.66,2.89,1.33,2.05,2.01,5.34,2.01,9.76v36.6c0,.55.45,1,1,1h11.88c.55,0,1-.45,1-1v-39.11c0-7.52-1.53-13.16-4.54-16.77-3.06-3.67-7.66-5.52-13.69-5.52Z"/><path class="cls-13" d="M1258.71,1352.65c-2.31,0-4.2.64-5.62,1.92-1.45,1.3-2.18,3.35-2.18,6.09s.74,4.65,2.2,5.98c1.43,1.31,3.32,1.97,5.6,1.97s4.11-.67,5.52-1.98c1.44-1.33,2.17-3.34,2.17-5.98s-.72-4.74-2.14-6.06c-1.4-1.3-3.27-1.95-5.55-1.95Z"/><rect class="cls-13" x="1251.67" y="1375.39" width="13.93" height="61.29" rx="1" ry="1"/><rect class="cls-13" x="1279.28" y="1351.42" width="13.93" height="85.26" rx="1" ry="1"/><path class="cls-13" d="M1352.09,1375.8c-.19-.26-.49-.41-.81-.41h-12.57c-.44,0-.84.29-.96.72l-9.52,32.75s0,0,0,0c-.68,2.37-1.29,4.65-1.8,6.78-.14.58-.28,1.16-.4,1.72-.28-1.35-.6-2.74-.95-4.13-.36-1.42-.77-2.9-1.24-4.38l-9.85-32.75c-.13-.42-.52-.71-.96-.71h-12.73c-.32,0-.62.16-.81.42-.19.26-.24.6-.13.9l19.85,58.61-1.67,5.47c-.72,2.37-1.54,4.34-2.44,5.85-.86,1.44-1.86,2.51-3,3.18-1.12.67-2.52,1.01-4.14,1.01-.9,0-1.8-.07-2.68-.2-.88-.13-1.68-.31-2.39-.51-.3-.09-.63-.03-.88.16-.25.19-.4.48-.4.8v10.01c0,.46.31.86.76.97,1.02.25,2.14.48,3.33.66,1.21.19,2.54.28,3.98.28,3.47,0,6.57-.71,9.22-2.12,2.65-1.41,4.98-3.58,6.94-6.45,1.92-2.82,3.56-6.38,4.86-10.58l21.56-67.15c.1-.3.04-.64-.14-.89Z"/><path class="cls-13" d="M1360.01,1419.2c-4.75,0-8.59,3.85-8.59,8.59s3.85,8.59,8.59,8.59,8.59-3.85,8.59-8.59-3.85-8.59-8.59-8.59Z"/></g></svg>