<?xml version="1.0" encoding="UTF-8"?><svg id="Icon" xmlns="http://www.w3.org/2000/svg" viewBox="0 0 1139.6 1131.59"><defs><style>.cls-1{fill:none;}.cls-2{fill:#481609;}.cls-3{fill:#54260d;}.cls-4{fill:#6f944b;}.cls-5{fill:#e8b21a;}.cls-6{fill:#f29f0b;}.cls-7{fill:#b04f1a;}.cls-8{fill:#fed811;}.cls-9{fill:#fff;}.cls-10{fill:#abcf67;}.cls-11{fill:#843b14;}.cls-12{fill:#fff8c6;}.cls-13{fill:#b0651a;}.cls-14{fill:#83370e;}.cls-15{fill:#34180a;}.cls-16{fill:#be860d;}.cls-17{fill:#efd182;}.cls-18{fill:#d2e1e8;}.cls-19{fill:#fef7c5;}.cls-20{fill:#652d11;}</style></defs><path class="cls-8" d="M305.05,1020.13c45.39-.03,90.78-1.01,136.15-2.31,157.61-4.51,315.84-12.26,472.91,5.98,137.01-104.06,225.49-268.69,225.49-454.01C1139.6,255.11,884.49,0,569.8,0S0,255.11,0,569.8c0,196.46,99.43,369.68,250.7,472.13,14.26-13.53,34.76-21.78,54.35-21.79Z"/><polygon class="cls-6" points="686.23 816.62 710.24 1074.86 838.58 1086.68 951.45 1073.75 964.94 874.75 967.4 811.85 686.23 816.62"/><path class="cls-18" d="M951.63,1053.86v35.74l-49.05,26.21-93.83,3.68-79.33-20.35-19-24.29,1.59-24.58c31.73,10.61,66.8,25.63,127.99,25.63,50.44,0,86.6-12.68,111.62-22.04Z"/><path class="cls-12" d="M842.95,849.04c86.11,0,124.27-23.77,124.27-23.77l-.36-67.46-152.29,12.22-128.16-12.22,3.74,73.09s66.68,18.14,152.79,18.14Z"/><polygon class="cls-6" points="712.01 1074.86 712.14 1075.02 710.37 1074.86 698.8 950.06 712.01 1067.46 712.01 1074.86"/><polygon class="cls-6" points="689.43 816.57 690.5 816.55 690.08 829.18 690.08 829.24 689.43 849.13 686.42 816.62 689.43 816.57"/><path class="cls-6" d="M924.7,1028.44c.58,13.64.6,25.7.45,34.56-22.09,6.82-49.94,12.9-84.56,12.9-42.32,0-72.81-7.31-98.08-15.32-.07-9.76-.05-20.34.27-25.34.67-10.54-11.91-92.23-16.68-124.57-2.13-14.49-4.21-44.49-5.83-73.19,8.77,1.66,19.22,3.43,31.04,5.07.47,9.49,1.08,18.5,1.9,26.04,3.75,34.83,11.3,95.06,11.77,122.84.47,27.76.47,38.59,2.82,46.11,2.83,11.77,14.11,14.6,16.48-.94,1.88-12.71.47-99.3,0-119.07-.23-9.53-1.44-40.55-2.2-71.42,18.55,1.75,39.15,2.91,60.97,2.91,7.33,0,14.31-.18,20.95-.49,2.22-.11,4.39-.22,6.53-.36,6.52-.42,12.69-.96,18.52-1.62,1.97-.22,3.9-.45,5.78-.7,1.25-.16,2.45-.32,3.66-.49.87-.13,1.71-.25,2.54-.38,3.03-.45,5.96-.92,8.75-1.43.69-.13,1.35-.23,2.02-.36,8.95-1.66,16.77-3.52,23.48-5.41.6-.16,1.17-.32,1.77-.51,1.12-.32,2.22-.65,3.28-.97.22,6.82.36,12.85.36,16.93,0,17.43-17.2,146.61-16.01,175.2Z"/><path class="cls-10" d="M842.93,546.45c1.48-33.28-2.63-66.71-12.72-98.69-7.22-22.88-17.2-45.25-29.88-65.62-5.27-8.47-10.74-16.95-16.97-24.49,1.02-2.75,1.6-5.68,1.6-8.73,0-14.19-11.98-26.17-26.17-26.17-7.64,0-14.64,3.53-19.49,8.99-24.48-2.44-50.26,1.34-74.37,5.29-23.98,3.93-47.58,9.96-70.84,16.94-46.67,14.01-92.09,31.86-138.81,45.72-25.95,7.7-52.28,14.09-79.09,17.92-27.96,3.99-56.09,7.15-80.33,23.06-3.97,2.61-7.15,6.09-9.36,10.04-7.16,3.3-12.29,9.86-14.42,17.67-2.96-3.16-6.82-5.59-11.59-6.9-12.64-3.47-29.72,4.28-32.19,18.28-9.61,54.48-17.82,112.16,7.68,163.75,12.09,24.46,32.35,44.41,52.73,62.08,20.77,18.01,43.07,34.43,66.52,48.77,19.24,11.76,39.31,21.95,59.9,31.03-17.64,17.4-34.76,35.21-48.96,55.63-14.04,20.19-24.22,43.18-31.66,66.56-14.67,46.13-17.96,95.31-20.93,143.35-7.47,8.61-3.79,25.93,11.07,25.93,1.84,0,3.5-.27,5-.75,3.19,1.38,6.61,2.16,10.03,2.16,6.18,0,11.58-2.09,15.85-5.53,2.12.59,4.34.96,6.62,1.01,60.97,1.41,121.85,6.36,182.79,7.48,56.62,1.04,114.12-7.95,159.65-43.87,22-17.36,46.46-48.08,30.51-77.27-8.37-15.32-23.8-21.3-39.22-27.18-12.59-4.8-25.47-8.77-38.45-12.38-25.51-7.08-51.42-12.7-76.78-20.33-5.92-1.78-11.81-3.67-17.65-5.72-5.5-1.93-13.15-4.85-16.68-6.43-5.64-2.53-11.2-5.24-16.61-8.23-2.09-1.15-4.17-2.35-6.16-3.68,4.31-4.85,8.71-9.53,12.69-14.7,9.95-12.94,16.05-27.81,15.39-43.87,18.27.32,37.35.4,53.64-6.28,21.02-8.62,40.59-21.72,60.33-32.9,14.37-8.14,16.41-27.07,6.79-39.31,3.32-4.27,5.35-9.58,5.35-15.55,0-13.63-11.98-26.88-26.17-26.17-.52.03-1.05.06-1.57.08,14.12-3.65,26.32-11.51,37.55-22.65,9.06-8.99,20-17.31,31.2-23.36,9.35-.22,18.38-2.6,27.22-5.69,3.04,1.27,6.34,1.98,9.77,1.98,11.07,0,20.82-7.39,24.54-17.38,8.11-5.55,14.56-12.72,19.6-23.27,6.99,3.78,15.71,4.03,23,.95,10.38-.85,20.15-6.56,22.17-18.36,1.11-6.45,2.21-12.91,3.32-19.36,1.49-8.68-.32-17.5-5.43-23.88Z"/><path class="cls-14" d="M326.45,738.47c-5.78-9.87-16.71-14.06-27.2-12.29-1.16-1.03-2.4-1.96-3.72-2.73-1.66-.97-3.35-1.72-5.05-2.29-.32-6.75-2.99-13.47-7.54-18.02-10.74-10.74-26.13-9.1-37.01,0-77.76,65.04-125.77,160.34-137.72,260.4-3.23,27.08-3.34,54.41-.42,81.52,1.55,14.4,10.74,25.72,26.17,26.17l86.05,2.51c14.14.41,26.17-12.32,26.17-26.17,0-7.54-3.25-14.18-8.35-18.89,2.21-8.51,4.42-17.01,6.63-25.52,1.56-6.02.72-12.02-1.72-17.25.89-1.7,1.65-3.56,2.21-5.62,3.39-12.52,5.08-25.62,4.84-38.6,0-.24-.04-.48-.05-.73,1.34-5.1,3.02-10.1,5.18-14.94,3.43-7.72,4.07-16.25,1.24-23.52,4.62-11.78,9.33-23.53,14.18-35.22,7.58-18.27,15.55-36.38,23.76-54.38,2.05-4.49,4.06-9.02,6.15-13.51,9.9-3.77,17.19-13.47,17.19-24.47,0-.29-.04-.57-.04-.85,12.21-6.74,15.9-23.88,9.05-35.6Z"/><path class="cls-13" d="M382.12,779.69c-9.39-4.51-18.78-9.01-28.16-13.52-12.15-5.83-23.29,4.77-23.35,14.77-2.75,2.13-4.9,5.29-5.58,8.31-.28,1.26-.42,2.45-.5,3.62-3.17,1.15-5.88,3.26-7.22,6.42-9.29,21.83-18.58,43.65-27.87,65.48-8.56,20.12-18.01,40.13-24.45,61.06-6.48,21.05-7.95,43.12-10.09,64.92-2.34,23.91-4.68,47.82-7.02,71.72-.81,8.26,7.63,15.34,15.34,15.34,4.56,0,8.23-1.83,10.85-4.7,8.12,8.08,26.28,4.55,26.83-10.57.74-20.38-1.78-40,3.3-60.02,5.23-20.64,8.66-41.23,11.27-62.36.81-6.58,1.64-13.3,2.6-20.05,13.56-23.59,24.98-48.27,34.42-73.81,1.02-2.77.89-5.69-.01-8.41,4.23-5.28,9.15-10.21,12.48-16.05,2.35-4.12,3.65-8.84,3.62-13.52l5.82-.05c14.38-.12,21.99-21.75,7.74-28.59Z"/><path class="cls-5" d="M688.09,897.35c.1-2.82-.39-5.65-1.53-8.15-5.28-11.58-3.95-26.19-4.26-38.57-.36-14.3-.55-28.59-.2-42.89.38-15.51-20.91-20.49-28.59-7.74-8.41,13.96-24.03,18.01-38.93,21.92-17.77,4.67-35.77,6.66-54.12,6.51-9.9-.08-14.84,7.58-14.82,15.27-.82.56-1.59,1.2-2.23,2.03-4.33,5.56-6.56,11.67-9.25,18.16-2.53,6.09,1.68,14.29,7.05,17.32,23.42,13.24,48.63,23.07,74.89,28.93,5.37,1.2,9.87-.24,13.16-3.03,1.93,1.12,4.2,1.88,6.84,2.1,8.6.71,17.21,1.42,25.81,2.12,2.43,3.47,6.42,5.88,11.96,5.88,11.84,0,16.59-11.04,14.22-19.88Z"/><path class="cls-3" d="M777.96,303.92c-2.08-34.03-39.75-30.64-64.28-28.78-28.65,2.18-57.2,6.4-85.29,12.41-56.66,12.11-111.47,31.71-164.13,55.73-30.07,13.72-59.38,29.02-87.92,45.67-17.05,9.95-1.62,36.48,15.49,26.49,20.11-11.74,40.63-22.82,61.52-33.13,2.67.99,5.82,1.14,9.35.05,97.77-30.18,198.24-51.52,299.92-63.1,7.84-.89,15.89-6.31,15.34-15.34Z"/><path class="cls-7" d="M370.79,119.73c-15.71,3.74-30.13,12.3-40.78,24.47-5.45,6.23-6.13,15.56,0,21.7,5.57,5.57,16.22,6.26,21.7,0,7.43-8.5,16.25-13.96,27.24-16.58,19.2-4.58,11.07-34.17-8.16-29.59Z"/><path class="cls-7" d="M795.76,198.68c-7.72-21.87-22.96-39.06-41.45-52.61-38.62-28.31-88.6-41.25-135.55-46.09-50.39-5.19-105.36-1.54-153.56,14.66-24.87,8.36-48.46,20.44-71.92,32.06-23.68,11.73-47.14,24-69.52,38.08-45.25,28.46-86,63.92-120.47,104.76-1.66.73-3.25,1.7-4.7,2.92-24.03,20.18-38.05,48.89-47.42,78.31-4.63,14.55-8.66,29.53-11.63,44.51-3.37,16.98,2.33,33.3,20.95,36.78.25.05,1.03.13,1.7.23.06.48.51,1.42.61,1.88.66,3.05,3.8,6.75,5.75,8.97,4.87,5.56,11.68,9.47,18.76,11.48,14.94,4.24,30.57.71,43.71-7.02,5.18-3.05,10-6.6,14.74-10.24,4.47,1.1,9.47.34,13.87-3.44,11.64-10,24.7-15.92,39.04-20.92,16.61-5.79,26.63-15.12,37.88-28.21.63-.74,1.29-1.45,1.94-2.17,23.25-15.23,45.32-32.26,66.94-49.73,2.74.27,5.73-.15,8.83-1.53,31.06-13.81,62.11-27.62,93.17-41.43,4.12-1.83,6.52-5.94,7.23-10.37,22.07-8.38,44.75-15.26,67.86-20.67,29.31-6.86,59.09-11.36,89.12-13.52,33.01-2.37,66.18-2.2,97.96,8.01,4.75,1.53,8.81.78,11.94-1.28,3.06-.98,5.9-3.05,8.06-6.51,12.39-19.86,13.91-45.03,6.18-66.93Z"/><path class="cls-18" d="M951.32,1053.87v35.74l-48.66,26.21-93.09,3.68-78.69-20.34-18.73-24.13-.13-.16v-24.58c9.53,3.21,19.53,6.82,30.5,10.31,25.27,8.01,55.75,15.32,98.08,15.32,34.62,0,62.47-6.08,84.56-12.9,9.84-3.07,18.54-6.24,26.17-9.13Z"/><path class="cls-17" d="M967.4,825.27s-.18.11-.52.31l-4.67-64.79-24.04,22.07s1.5,31.08,2.18,53.46c-1.06.32-2.17.65-3.28.97-.6.18-1.17.34-1.77.51-6.71,1.89-14.53,3.75-23.48,5.41-.67.13-1.34.23-2.02.36-2.8.51-5.72.97-8.75,1.43-.83.13-1.68.25-2.54.38-1.21.16-2.42.32-3.66.49-1.88.25-3.81.49-5.78.7-5.83.67-12,1.21-18.52,1.62-2.15.14-4.31.25-6.53.36-6.64.31-13.63.49-20.95.49-21.82,0-42.41-1.16-60.97-2.91-.27-10.7-.49-21.37-.6-31.13-.22-20.45.07-36.87,1.39-40.99l-32.96-6.59s-.16,22.45.45,48.1c.22,8.9.52,18.17.96,27.04-11.82-1.64-22.27-3.41-31.04-5.07-.43-7.33-.81-14.55-1.17-21.42-1.35-26.33-2.2-47.32-2.2-47.32l-3.09-.72c.4-2.56.45-5.11.18-7.58l100.66,9.58,152.38-12.22.36,67.47Z"/><path class="cls-10" d="M1025.51,950.71c-1.89-16.24-.86-37.82-14.55-49.39-.59-.5-1.21-.96-1.85-1.4-.17-1.07-.33-2.14-.48-3.22-1.19-8.97-6.34-16.88-15.26-18.6-.28-.65-.58-1.28-.93-1.88-5.49-9.39-16.69-11.3-25.93-6.8-14.16,6.9-19.38,23.01-21.32,37.55-1.08,8.13-.66,16.79,3.79,23.99,1.58,2.55,3.49,4.7,5.62,6.64-2.56,3.72-5.03,7.53-6.64,12.16-2.95,8.45-3.66,17.68-2.54,26.52,0,.01,0,.03,0,.04-.18,4.06.76,8.18,2.83,11.61,6.24,17.43,21.19,33.3,40.74,21.19,14.09-8.73,22.86-25.52,26.56-41.94,6.03-3.3,10.75-9.53,9.95-16.48Z"/><path class="cls-19" d="M929.32,644.62c-2.09,0-4.15.11-6.19.34-6.24.69-12.18,2.42-17.68,5-.82-1.43-1.68-2.82-2.57-4.19-14.51-22.18-39.63-36.84-68.2-36.84-31.92,0-59.56,18.34-72.88,45.01-7.06-2.09-14.58-3.02-22.36-2.64-35.58,1.72-64.74,31.74-67.17,69.16-.02.27-.03.54-.05.8-.88,16.06,6.12,37.52,21.25,39.71,0,0,127.74,9.64,137.68,10.08.09.61.17,1.23.26,1.84,4.49,29.31,28.62,51.71,57.71,51.71s51.08-20.47,56.99-47.9c.82-3.88,1.32-7.91,1.42-12.02,22.24-7.67,38.59-29.02,40.11-54.6.09-1.3.12-2.6.12-3.92,0-34-26.17-61.56-58.45-61.56Z"/><path class="cls-4" d="M347.39,868.8s-5.11,243.27,355.32,164.98l-54.89,44.81-340.38.81s17.77-185.47,39.94-210.59Z"/><path class="cls-4" d="M790.62,356.8c-1.36-7.7-127.98-6.67-202.3,19.8-127.09,45.27-198.41,67.3-240.88,66.62-28.78-.46-139.46,111.54-28.68,242.01,76.5,90.1,182.43,99.18,232.15,98.74,79.73-.71,125.65-33.08,125.65-33.08l8.65,24.43-96.89,51.58-46-3.39-18.07,53.3-35.38-23.57s-14.02-71.87-91.51-49.83l4.1-18.02-112.75-79.81-62.42-104.3,3.28-109.75,6.28-19.49,101.28-59.11,64.34.31,132.46-49.51,157.14-34.7,76.51-4.32,23.06,32.06Z"/><path class="cls-17" d="M680.97,699.29s10.41,50.38,98.31,30.63c0,0,23.27,23.74,69.8,19.02,0,0,2.59,70.79,75.62,54.48l-19.55,18.83-39.38-2.75-35.82-48.5-144.25-13.2-13.44-37.34,8.71-21.18Z"/><path class="cls-16" d="M686.42,839.48s-75.18,29.32-131.71-7.09l78.39-22.41,52.1-34.65,1.22,64.15Z"/><path class="cls-16" d="M688.48,879.67s-83.41,5.7-149.28-16.77l-6.11,8.71,17.07,14.96s89.5,14.63,138.83,10.03l-.51-16.93Z"/><path class="cls-8" d="M726.11,910.67c-2.13-14.49-4.21-44.49-5.83-73.19-19.01-3.57-30.1-6.59-30.1-6.59l-.09-1.66-.65,19.89,6.96,74.94c20.89,6.55,33.36,26.91,35.4,48.16,1.6,16.61-2.18,39.1-15.43,50.57-2.65,2.3-5.66,4.01-8.8,5.11l4.45,39.56v-17.18c9.53,3.21,19.53,6.82,30.5,10.31-.07-9.76-.05-20.34.27-25.34.67-10.54-11.91-92.23-16.68-124.57Z"/><polygon class="cls-1" points="689.43 849.13 698.8 950.06 688.98 862.9 689.43 849.13"/><path class="cls-12" d="M720.28,837.49c-19.01-3.57-30.1-6.59-30.1-6.59l-.09-1.66v-.05l.42-12.63,1.77-53.6,24.64,5.79s.85,20.99,2.2,47.32c.36,6.88.74,14.1,1.17,21.42Z"/><path class="cls-12" d="M781.48,815c.11,9.76.32,20.43.6,31.13-11.03-1.03-21.33-2.26-30.75-3.57-.43-8.86-.74-18.14-.96-27.04-.61-25.65-.45-48.1-.45-48.1l32.96,6.59c-1.32,4.12-1.61,20.54-1.39,40.99Z"/><path class="cls-8" d="M784.28,1036.62c-2.36,15.54-13.64,12.71-16.48.94-2.35-7.53-2.35-18.36-2.82-46.11-.47-27.78-8.01-88-11.77-122.84-.81-7.54-1.43-16.55-1.9-26.04,9.42,1.32,19.73,2.54,30.75,3.57.76,30.86,1.97,61.89,2.2,71.42.47,19.76,1.88,106.36,0,119.07Z"/><ellipse class="cls-8" cx="894.82" cy="886.86" rx="10.15" ry="10.75"/><path class="cls-8" d="M952.16,930.19c-6.8-10.11-6.1-23.9.43-33.92.66-1.01,1.38-1.98,2.12-2.93,1.78-4.43,4.86-8.26,9.25-10.66l.54-7.92,1.91-48.89c-1.53.85-4.82,2.56-9.98,4.71-.65.27-1.34.54-2.06.85-.78.31-1.61.61-2.47.94-.4.16-.83.32-1.25.47-3.01,1.12-6.44,2.29-10.31,3.48.22,6.82.36,12.85.36,16.93,0,17.43-17.2,146.61-16.01,175.2.58,13.64.6,25.7.45,34.56,9.84-3.07,18.54-6.24,26.17-9.13v15.63l4.65-68.73c-3.9-2-7.63-5.19-9.43-8.8-4.03-8.12-5.36-16.97-2.62-25.75,2.59-8.32,8.07-15.87,15.75-20.17l.55-8.14c-3.18-1.96-5.98-4.61-8.07-7.71Z"/><polygon class="cls-6" points="951.32 1069.5 958.92 957.11 951.32 1075.02 951.32 1069.5"/><path class="cls-12" d="M966.88,825.57c-.13.07-.29.16-.47.27v.02c-1.53.85-4.82,2.56-9.98,4.71-.65.27-1.34.54-2.06.85-.78.31-1.61.61-2.47.94-.4.16-.83.32-1.25.47-3.01,1.12-6.44,2.29-10.31,3.48-.69-22.38-2.18-53.46-2.18-53.46l24.04-22.07,4.67,64.79Z"/><path class="cls-6" d="M967.4,832.85l-8.39,123.02,5.49-81.11,1.91-48.89v-.02c.18-.11.34-.2.47-.27l.52,7.27Z"/><path class="cls-11" d="M152.02,459.15l53.71,15.95-10.13,3.93-46.8-15.52-10.45-48.46,14.91-58.77,35.65-66.18,73.26-67.61s4.24,1.99,11.26,5.74c-22.09,29.11-59.23,85.37-69.2,145.61-40.3,44.94-52.21,68.78-52.21,68.78l6.57,8.77-6.57,7.74Z"/><path class="cls-11" d="M389.22,329.26c-32.87,22.61-59.94,42.45-85.39,54.33-43.14,20.12-66.71,9.22-76.87.97.54-2.62,1.12-5.22,1.73-7.82,28.25-31.01,65.57-66.78,111.41-99.86.88-.63,1.77-1.28,2.67-1.91,18.14,15.49,35.28,33.84,46.44,54.29Z"/><path class="cls-11" d="M323.74,259.88c-2.56,2.13-5.13,4.28-7.65,6.44-29.65,25.39-54.25,48.26-74.56,68.42,14.01-37.49,33.05-71.17,49.51-96.52,9.71,5.79,21.04,13.09,32.7,21.66Z"/><path class="cls-11" d="M457.76,170.69c-10.94,5.96-22.04,12.25-33.23,18.9-29.76-23.05-55.61-35.3-55.61-35.3l29.94-14.8c23.1,9.31,42.54,19.96,58.89,31.21Z"/><path class="cls-11" d="M528.82,249.49c-12.54,5.43-24.46,11.05-35.79,16.77-12.67-23.21-30.14-43.14-47.99-59.45,11.14-6.77,22.43-13.45,33.84-19.89,25,21.48,40.45,43.84,49.94,62.57Z"/><path class="cls-11" d="M655.59,205.43c-6.91,1.97-14.17,4.13-21.8,6.52-.63-1.79-1.3-3.63-1.99-5.5-9.28-25.14-32.56-48.55-56.27-67.14,7.11-2.92,14.2-5.67,21.24-8.23,21.71,17.71,43.91,40.66,55.72,67.18,1.1,2.47,2.15,4.87,3.1,7.18Z"/><path class="cls-11" d="M575.6,115.17c-6.61,2.67-13.66,5.59-21.13,8.79-23.93-16.26-43.84-26.17-43.84-26.17l27.61-5.29s16.48,8.19,37.36,22.67Z"/><path class="cls-11" d="M665.43,270.21c-.22.2-.34.27-.34.27l-23.07,6.41s.72-.7,1.48-2.71l16.37-4.28,5.56.31Z"/><polygon class="cls-11" points="780.36 276.7 798.21 257.99 780.42 286.63 766.32 275.91 780.36 276.7"/><path class="cls-11" d="M804.42,192.22c-14.76-2.82-28.75-4.66-44.22-4.78-9.3-40.72-38.48-60.43-39.54-61.15l75.05,39.8,8.72,26.13Z"/><polygon class="cls-11" points="810.45 210.27 808.28 219.85 808.28 203.77 810.45 210.27"/><path class="cls-3" d="M252.82,468.96l-19.56,7.49s-.87-.54-2.33-1.73c-1.68-1.34-4.15-3.54-6.95-6.71l22.65-8.84c1.5,2.51,2.8,4.62,3.84,6.23,1.46,2.29,2.35,3.57,2.35,3.57Z"/><path class="cls-3" d="M246.63,459.15l-22.65,8.84c-8.57-9.73-20.21-28.59-21.98-60.34,6.52-7.98,13.86-16.62,22.02-25.74,1.52-1.71,3.09-3.43,4.67-5.18-.61,2.6-1.19,5.2-1.73,7.82-.23,1.14-.47,2.26-.69,3.39-5.43,23.17,10.94,55.26,20.36,71.2Z"/><path class="cls-20" d="M291.03,238.22c-16.46,25.36-35.5,59.04-49.51,96.52-14.51,14.42-26.86,27.47-37.29,39.11,9.96-60.25,47.11-116.5,69.2-145.61,4.75,2.54,10.77,5.88,17.6,9.98Z"/><path class="cls-11" d="M325.67,190.52s-15.56,18.23-34.64,47.7c-6.82-4.1-12.85-7.44-17.6-9.98,9.93-13.1,16.82-20.7,16.82-20.7l35.41-17.02Z"/><path class="cls-3" d="M201.76,400.52c.02,2.45.11,4.84.23,7.15-24.91,30.5-37.72,51.33-37.72,51.33l-5.69-7.58-6.57-8.77s11.91-23.84,52.21-68.78c-1.39,8.27-2.24,16.62-2.47,24.98v1.68Z"/><path class="cls-11" d="M686.42,109.07c-28.34,2.82-58.62,10.67-89.65,22-7.24-5.9-14.44-11.23-21.17-15.9,33.55-13.57,54.99-20.39,54.99-20.39l55.82,14.29Z"/><path class="cls-20" d="M596.77,131.07c-7.04,2.56-14.13,5.31-21.24,8.23-7.11-5.58-14.24-10.72-21.06-15.34,7.47-3.19,14.53-6.12,21.13-8.79,6.73,4.67,13.93,10,21.17,15.9Z"/><path class="cls-11" d="M575.53,139.3c-32.16,13.14-64.81,29.58-96.65,47.61-6.39-5.49-13.41-10.92-21.12-16.23,35.3-19.19,68.78-34.78,96.7-46.73,6.82,4.62,13.95,9.76,21.06,15.34Z"/><path class="cls-20" d="M478.88,186.91c-11.41,6.44-22.7,13.12-33.84,19.89-6.88-6.28-13.79-12.04-20.5-17.22,11.19-6.64,22.29-12.94,33.23-18.9,7.71,5.31,14.73,10.74,21.12,16.23Z"/><path class="cls-11" d="M445.04,206.8c-36.62,22.33-71.42,45.97-102.26,68.17-6.3-5.4-12.72-10.43-19.04-15.09,32.11-26.64,66.76-50.08,100.8-70.3,6.71,5.18,13.63,10.94,20.5,17.22Z"/><path class="cls-20" d="M342.78,274.97c-.9.63-1.79,1.28-2.67,1.91-45.84,33.08-83.17,68.85-111.41,99.86,3.36-14.35,7.76-28.43,12.83-42,20.3-20.16,44.9-43.03,74.56-68.42,2.53-2.17,5.09-4.31,7.65-6.44,6.32,4.66,12.74,9.69,19.04,15.09Z"/><path class="cls-2" d="M241.53,334.75c-5.07,13.57-9.48,27.65-12.83,42-1.59,1.75-3.16,3.47-4.67,5.18-8.16,9.11-15.5,17.76-22.02,25.74-.13-2.31-.22-4.69-.23-7.15v-1.68c.23-8.36,1.08-16.71,2.47-24.98,10.43-11.64,22.78-24.69,37.29-39.11Z"/><path class="cls-20" d="M223.98,468l-18.25,7.11-53.71-15.95,6.57-7.74,5.69,7.58s12.81-20.83,37.72-51.33c1.77,31.75,13.41,50.61,21.98,60.34Z"/><path class="cls-20" d="M401.45,365.72l-71.6,38.06-57,45.16-26.22,10.22c-9.42-15.94-25.79-48.03-20.36-71.2.22-1.14.45-2.26.69-3.39,10.16,8.25,33.73,19.15,76.87-.97,25.45-11.88,52.52-31.71,85.39-54.33,6.28,11.53,10.67,23.73,12.24,36.46Z"/><path class="cls-11" d="M643.5,274.18l-119.1,31.12-110.96,59.92-117.1,78.28-45.86,21.89c-1.05-1.61-2.35-3.72-3.84-6.23l26.22-10.22,57-45.16,71.6-38.06c-1.57-12.72-5.96-24.92-12.24-36.46,29.11-20.03,62.75-42.23,103.81-63.01,6.68,12.2,12.02,25.3,15.4,39.27l35.34-11.08s-1.77-18.99-14.94-44.96c14.26-6.19,29.31-12.13,45.27-17.71,22.25-7.78,42-14.35,59.7-19.84,14.15,40.27,11.84,56.51,9.71,62.23Z"/><path class="cls-3" d="M250.48,465.38l-19.55,9.33-10.16,4.86-15.03-4.46,18.25-7.11,22.65-8.84c1.5,2.51,2.8,4.62,3.84,6.23Z"/><path class="cls-20" d="M543.77,294.44l-35.34,11.08c-3.38-13.97-8.72-27.07-15.4-39.27,11.33-5.72,23.25-11.33,35.79-16.77,13.18,25.97,14.94,44.96,14.94,44.96Z"/><path class="cls-20" d="M665.43,270.21l-5.56-.31-16.37,4.28c2.13-5.72,4.44-21.96-9.71-62.23,7.63-2.38,14.89-4.55,21.8-6.52,21.42,51,11.84,62.97,9.84,64.78Z"/><path class="cls-11" d="M655.59,205.43c46.93-13.48,77.95-18.27,104.61-17.99,4.69,20.61,4.31,46.58-7.38,78.2l13.5,10.27-100.89-5.7c2-1.8,11.59-13.77-9.84-64.78Z"/><path class="cls-20" d="M808.28,203.77v16.08l-7.8,34.47-2.27,3.66-17.85,18.72-14.04-.79-13.5-10.27c11.7-31.62,12.07-57.59,7.38-78.2,15.47.13,29.45,1.97,44.22,4.78l3.86,11.55Z"/><path class="cls-3" d="M808.28,192.98v10.79l-3.86-11.55c1.28.25,2.56.51,3.86.76Z"/><polygon class="cls-3" points="800.49 254.32 808.28 219.85 808.28 247.43 798.21 257.99 800.49 254.32"/><path id="Outline" class="cls-15" d="M992.91,861.12c-5.44-1.1-11.1-1.03-16.7.01,1.29-44.13-3.01-94.99-3.22-97.36-.04-.41-.1-.82-.18-1.21,14.88-12.47,24.4-31.01,25.64-51.74.1-1.46.14-2.97.14-4.64,0-39.92-31.12-72.39-69.38-72.39-2.54,0-5.04.14-7.38.41-4.13.45-8.21,1.29-12.19,2.51-12.32-17.23-29.96-29.43-49.91-35.07,3.11-17.86,4.42-34.76,4.42-55.97,0-79.14-26.42-153.79-74.76-212.49,2.32-1.39,4.12-3.6,4.89-6.34,4.59-16.38,3.23-29-1.31-38.71,4.78-6.36,9.76-14.01,16.39-27.27,11-21.99,13.33-45.2,6.75-67.12-7.59-25.29-26.36-47.13-55.76-64.93-23.66-14.32-110.97-59.79-241.28-43.81-41.95,5.15-73.32,16.62-108.23,34.43-10.83-9.82-24.89-15.32-39.76-15.32-32.69,0-59.28,26.59-59.28,59.28,0,3.79.37,7.54,1.07,11.21-51.78,30.44-100.79,72.77-135.27,117.01-37.88,48.61-55.2,94.86-48.77,130.24,5.37,29.55,17.27,49.77,35.37,60.09,9.36,5.34,20.04,8.01,32.23,8.01,7.16,0,14.85-.96,23.08-2.8-5.47,19.62-8.06,39.51-8.06,61.3,0,49.43,14.64,95.5,42.82,136.07-61.22,44.1-105.96,109.29-133.06,193.99-23.14,72.33-27.24,140.92-27.63,175.37-.11,9.46,3.5,18.37,10.15,25.1,6.66,6.74,15.55,10.44,25.02,10.44h428.24c14.72,1.34,29.52,1.65,44.28.77,35.99-2.72,70.66-16.7,99.13-38.71.02,5.2-.03,9.38-.07,12.79-.06,4.82-.1,8.31.09,11.29,2.62,40.17,77.07,56.02,139.05,56.02,7.19,0,14.23-.22,20.96-.63,65.09-4.01,102.87-25.01,101.07-56.17-.06-.98-1.23-21.88.04-49.65,4.01,1.43,8.2,2.28,12.51,2.42.45.01.9.02,1.35.02,35.48,0,57.54-45.32,61.32-76.42,4.04-33.21-8.95-82.98-43.83-90.04ZM893.66,651.69c.83,1.27,1.57,2.48,2.27,3.69l4.97,8.61,9-4.22c4.57-2.14,9.39-3.5,14.35-4.05,1.6-.18,3.23-.27,4.96-.27,26.31,0,47.72,22.76,47.72,50.73,0,1.18-.03,2.23-.1,3.27-1.23,20.57-14.45,38.65-32.9,45l-7.11,2.45-.19,7.52c-.08,3.34-.49,6.72-1.19,10.01-5,23.17-24.12,39.36-46.5,39.36-23.51,0-43.33-17.88-47.08-42.36l-1.76-12.54-10.68,1.45c-50.44,6.87-133.47-9.79-134.3-9.96l-.61-.11c-6.8-.98-12.76-15.05-12.02-28.4l.04-.7c2.06-31.67,27.1-57.61,57-59.05,6.45-.31,12.79.43,18.8,2.21l8.7,2.57,4.06-8.11c12.03-24.07,36.3-39.02,63.31-39.02,24,0,46.15,11.94,59.24,31.92ZM683.22,911.31c-16.51-4.01-33.35-6.47-47.35-8.93-14.32-2.14-29.44-4.28-43.34-8.23-18.35-4.95-36.21-11.75-53.47-19.87,9.25-14.62,12.45-27.42,13.54-38.76,2.48.15,4.95.29,7.41.42,8.84.24,17.66.04,26.54-.94,34.8-3.09,66.47-18,90.46-42.02-.96,45.68,1.92,88.19,6.21,118.35ZM639.93,323.85c-49.97,7.66-110.01,29.46-162.98,48.69-36.26,13.17-67.58,24.54-87.8,28.48-5.97,1.16-13.37,1.7-20.68,1.89,1.73-1.3,3.48-2.62,5.26-3.95,50.62-37.96,149.64-87.2,240.97-107.87,47.03-10.64,79.55-14.08,101.96-14.08s34.29,3.33,40.89,6.4c16.56,7.71,19.27,18.41,17.66,29.55-19.75-.1-69.89.88-135.27,10.9ZM371.1,125.76c6.63,0,13.02,1.74,18.61,4.93-12.33,6.8-25.37,14.31-39.64,22.53-5.33,3.07-10.85,6.25-16.57,9.53.35-20.45,17.06-36.99,37.59-36.99ZM174.96,463.12c-12.28-7-20.62-22.19-24.79-45.15-11.08-60.96,72.8-167.55,179.52-228.1,11.12-6.31,21.46-12.27,31.2-17.88,65.09-37.49,100.94-58.15,160.83-65.49,18.21-2.23,35.5-3.21,51.85-3.21,94.41,0,156.7,32.62,175.58,44.05,64.28,38.91,49.98,85.58,40.85,103.84-4.49,8.97-8.02,14.93-11.31,19.73-3.84-2.9-7.95-5.25-12-7.13-28.09-13.08-80.84-10.99-156.77,6.19-98.68,22.33-198.34,73.54-249.18,111.67-4.9,3.67-9.6,7.22-14.15,10.66-5.52,4.17-10.79,8.14-15.88,11.94-.04.03-.08.06-.12.09-32.78,24.48-58.3,41.73-96.79,55.97-25.67,9.5-45.46,10.44-58.83,2.82ZM267.37,701.77c10.96,13.3,23.47,25.93,37.52,37.79,7.39,6.24,14.76,11.89,21.95,17.01-18.3,25.04-33.04,51-44.89,76.59-21.03-12.98-44.27-23.57-69.3-31.52-9.81-3.11-19.73-5.75-29.66-7.9,22.82-37.26,51.02-68.01,84.38-91.96ZM231.85,1067.75h-103.07c-3.65,0-7.06-1.43-9.63-4.02-2.55-2.58-3.93-6-3.89-9.63.09-7.78.38-17.39,1.05-28.4,33.45-1.09,68.85-8.93,102.97-22.89,5.75-2.35,11.43-4.89,17.01-7.56-4.15,32.84-4.62,58.55-4.44,72.5ZM240.2,968.98c-9.37,5.05-19.12,9.69-29.13,13.79-30.94,12.66-62.88,19.9-93.06,21.19,3.22-33.54,9.99-75.53,23.85-118.86,8.25-25.8,18.21-49.65,29.83-71.54,11.49,2.21,23.03,5.11,34.41,8.72,24.38,7.74,46.9,18.14,67.1,30.93-17.43,42.43-27.3,82.84-32.88,115.08-.04.23-.07.45-.11.68ZM295.77,1067.75h-42.23c-.19-15.49.45-47.57,6.81-87.76.67-1.59.96-3.32.82-5.06.2-1.18.39-2.36.6-3.56,9.43-54.22,31.51-132.53,83.1-202.77,15.32,9.57,28.82,16.43,38.35,20.82-45.45,53.65-66.8,125.85-76.77,178.68-8.4,44.49-10.29,81.89-10.68,99.64ZM704.36,1016.57c-1.13.81-2.1,1.83-2.85,3-2.1,2.15-4.16,4.13-6.1,5.91-27.58,24.93-63.91,40.62-101.16,42.3-48.89,1.12-98.79-10.33-141.12-34.69-25.49-14.63-46.32-34.22-67.1-55.17-4.54-4.53-12.11.55-9.61,6.51,9.29,21.97,25.74,41.13,44.8,55.42,2.59,2.19,6.94,5.16,9.73,7.06,2.9,1.89,7.01,4.93,10.06,6.58,8.75,5.44,18.01,10.15,27.53,14.27h-151.07c1.09-41.06,10.71-191.06,91.77-274.82l11.57-11.97-15.64-5.73c-.43-.16-44.01-16.37-86.84-52.67-15.21-12.89-28.39-26.56-39.55-40.97-.1-.17-.19-.34-.3-.5-.42-.63-.89-1.2-1.41-1.7-29.2-38.6-43.95-82.45-43.95-130.95,0-24.84,3.7-46.92,11.6-69.14,37.93-14.48,64.61-32.23,95.65-55.27,9.95.58,35.61,1.63,52.91-1.74,21.87-4.27,53.93-15.9,91.04-29.38,52.03-18.89,111.01-40.3,158.88-47.64,52-7.98,94.71-10.05,118.83-10.51,51.9,56.48,80.45,131.23,80.45,210.93,0,19.99-1.23,35.84-4.15,52.56-1.31-.05-2.61-.12-3.93-.12-32.36,0-61.7,16.45-78.47,43.45-5.7-1-11.54-1.36-17.45-1.07-28.5,1.38-53.18,17.95-66.71,42.23-10.45,7.5-30.11,16.5-65.64,18.7-68.24,4.21-92.55-35.37-93.61-37.16-2.99-5.15-9.57-6.92-14.74-3.96-5.19,2.97-6.99,9.59-4.02,14.78,1.18,2.07,28.54,48.32,102.28,48.32,3.69,0,7.51-.12,11.44-.36,21.02-1.3,39.16-4.89,54.25-10.7-.37,2.44-.64,4.92-.81,7.43l-.06.92c-.84,15.15,3.82,31.43,13.14,41.5-2.89,3.42-5.86,6.75-8.99,9.92-27.42,28.49-65.6,40.82-104.78,41.04-16.64,1.02-32.56-5.07-49.05-.25-4.09,1.06-5.46,6.67-2.28,9.49,3.52,3.29,7.51,5.51,11.64,7.26,3.43,1.35,6.95,2.36,10.53,3.16-.85,9.54-3.44,19.61-11.46,31.65-9.18-4.96-18.18-10.24-26.94-15.8-2.05-1.38-4.87-1.17-6.71.63-2.11,2.06-2.15,5.45-.08,7.56,5.61,5.73,11.44,10.72,17.64,15.46,15.38,11.98,32.4,21.7,50.03,29.97,19.64,8.85,40.67,15.46,61.87,19.2,27.13,5.33,98.26,12.92,110.53,38.37,7.64,18.43-7.14,41.08-21.61,56.73ZM934.25,925.51c1.48,5.94,3.82,11.14,6.87,15.4-6.49,7.64-13.44,18.86-13.77,32.16-.35,14.2,5.02,27.71,13.69,37.72-.27.84-.46,1.73-.52,2.66-1.77,27.2-1.22,52.14-.62,62.59.96,16.62-32.25,30.31-80.78,33.3-74.35,4.58-135.78-15.51-137.06-35.19-.14-2.15-.1-5.28-.05-9.62.09-6.97.21-17.04-.28-32.3,23.88-25.79,44.24-65.89,16.57-94.81-8.44-8.39-19.68-14.51-32.09-19.18-5.66-33.01-9.58-87.47-6.88-145.02,21.49,3.9,78.94,13.16,122.86,9.66,8.34,30.92,35.24,52.57,66.76,52.57,28.7,0,53.65-17.91,64.17-44.81,1.23,21.66,2.44,53.59,1.02,80.17-5.46,3.98-10.35,8.98-14.25,14.84-6.99,10.5-9.15,25.78-5.64,39.87ZM1015.24,948.54c-3.29,27.03-21.64,57.89-40.47,57.37-12.53-.4-26.22-14.3-25.77-32.31.28-11.45,11.28-21.84,14.64-24.75l10.43-9.04c.69-.6.57-1.71-.24-2.14l-12.15-6.55c-2.61-1.4-5.13-5.67-6.43-10.86-2.03-8.11-.96-17.2,2.65-22.62,6.31-9.47,17.21-15.69,26.75-15.69,1.35,0,2.68.13,3.96.38,18.75,3.79,29.9,39.32,26.63,66.2Z"/><g id="Face"><path class="cls-15" d="M595.8,620.57c4.31,6.36,6.72,16.87,2.17,19.94-4.55,3.08-14.32-2.44-18.63-8.79-4.31-6.36-4.11-14.01.43-17.08,4.55-3.08,11.72-.42,16.03,5.94Z"/><path class="cls-15" d="M661.44,630.44c-3.5,6.08-11.54,12.07-16.39,9.27-4.85-2.8-4.69-13.31-1.19-19.39,3.5-6.08,10.28-8.75,15.13-5.96,4.85,2.8,5.95,9.99,2.45,16.08Z"/><ellipse class="cls-15" cx="736.03" cy="530.89" rx="54.59" ry="70.41"/><ellipse class="cls-9" cx="748.84" cy="506.44" rx="16.64" ry="18.13"/><ellipse class="cls-15" cx="449.23" cy="535.57" rx="61.4" ry="73.37"/><ellipse class="cls-9" cx="466.72" cy="509.68" rx="16.64" ry="18.13"/></g></svg>